<svg xmlns="http://www.w3.org/2000/svg" xmlns:xlink="http://www.w3.org/1999/xlink" version="1.1" viewBox="0 0 3250 2850" style="background: #ffffff"><defs joint-selector="defs"></defs><g joint-selector="layers"  transform="matrix(1,0,0,1,0,0)"><g ></g><g ><!--z-index:1--><!--z-index:2--><!--z-index:3--><!--z-index:4--><!--z-index:5--><!--z-index:6--><!--z-index:7--><!--z-index:8--><!--z-index:9--><!--z-index:10--><!--z-index:11--><!--z-index:12--><!--z-index:13--><!--z-index:14--><!--z-index:15--><!--z-index:16--><!--z-index:17--><!--z-index:18--><!--z-index:19--><!--z-index:20--><!--z-index:21--><!--z-index:22--><!--z-index:23--><!--z-index:24--><!--z-index:25--><!--z-index:26--><!--z-index:27--><!--z-index:28--><!--z-index:29--><!--z-index:30--><!--z-index:31--><!--z-index:32--><!--z-index:33--><!--z-index:34--><g   id="j_2"  transform="translate(20,2806)"><g id="v-5"><text  id="v-6" font-size="24px" xml:space="preserve" y="0.8em" font-weight="normal" text-anchor="start" fill="#444444" pointer-events="none" display="block" font-family="Open Sans, Tahoma, Arial"><tspan dy="0"  display="block">суббота, 6 декабря 2025 г. в 22:45 Москва, стандартное время</tspan></text></g></g><!--z-index:35--><g   id="j_1"  transform="translate(20,2760)"><g id="v-3"><text  id="v-4" font-size="36px" xml:space="preserve" y="0.8em" font-weight="normal" text-anchor="start" fill="#444444" pointer-events="none" display="block" font-family="Open Sans, Tahoma, Arial"><tspan dy="0"  display="block">System Context View: Система заказа поездок</tspan></text></g></g><!--z-index:36--><g   id="j_3"  transform="translate(629,479)" style=""><g  id="v-10" style="opacity: 1;"><rect  x="0" y="160" width="400" height="240" rx="70" id="v-12" stroke-width="2" pointer-events="visiblePainted" fill="#084c61" stroke="#074457" stroke-dasharray=""></rect><circle  cx="200" cy="88.88888888888889" r="88.88888888888889" id="v-11" stroke-width="2" pointer-events="visiblePainted" fill="#084c61" stroke="#074457" stroke-dasharray=""></circle><line  x1="80" y1="266.6666666666667" x2="80" y2="400" id="v-18" stroke="#074457" stroke-width="1" stroke-dasharray=""></line><line  x1="320" y1="266.6666666666667" x2="320" y2="400" id="v-19" stroke="#074457" stroke-width="1" stroke-dasharray=""></line><text  id="v-13" font-size="33.599999999999994px" xml:space="preserve" y="216.9" font-weight="bold" text-anchor="middle" pointer-events="visible" font-family="Open Sans, Tahoma, Arial" fill="#ffffff" dominant-baseline="hanging" transform="matrix(1,0,0,1,200,0)"><tspan dy="0" >Пассажир</tspan></text><text  id="v-14" font-size="16.799999999999997px" xml:space="preserve" y="258.5" text-anchor="middle" font-family="Open Sans, Tahoma, Arial" fill="#ffffff" dominant-baseline="hanging" transform="matrix(1,0,0,1,200,0)" style="display: block;"><tspan dy="0" >[Person]</tspan></text><text  id="v-15" font-size="24px" xml:space="preserve" y="290.3" text-anchor="middle" font-family="Open Sans, Tahoma, Arial" fill="#ffffff" dominant-baseline="hanging" transform="matrix(1,0,0,1,200,0)" style="display: block;"><tspan dy="0" >Вызывает поездки,</tspan><tspan dy="1.2em" x="0" >оплачивает</tspan></text><g  id="v-16" font-weight="normal" text-anchor="middle" color="#ffffff" transform="matrix(1,0,0,1,197.5,368)" display="none"><g ></g><g ></g><g ></g><g ></g></g><image  id="v-17"></image></g></g><!--z-index:37--><g   id="j_4"  transform="translate(299,959)" style=""><g  id="v-23" style="opacity: 1;"><rect  x="0" y="160" width="400" height="240" rx="70" id="v-25" stroke-width="2" pointer-events="visiblePainted" fill="#084c61" stroke="#074457" stroke-dasharray=""></rect><circle  cx="200" cy="88.88888888888889" r="88.88888888888889" id="v-24" stroke-width="2" pointer-events="visiblePainted" fill="#084c61" stroke="#074457" stroke-dasharray=""></circle><line  x1="80" y1="266.6666666666667" x2="80" y2="400" id="v-31" stroke="#074457" stroke-width="1" stroke-dasharray=""></line><line  x1="320" y1="266.6666666666667" x2="320" y2="400" id="v-32" stroke="#074457" stroke-width="1" stroke-dasharray=""></line><text  id="v-26" font-size="33.599999999999994px" xml:space="preserve" y="216.9" font-weight="bold" text-anchor="middle" pointer-events="visible" font-family="Open Sans, Tahoma, Arial" fill="#ffffff" dominant-baseline="hanging" transform="matrix(1,0,0,1,200,0)"><tspan dy="0" >Водитель</tspan></text><text  id="v-27" font-size="16.799999999999997px" xml:space="preserve" y="258.5" text-anchor="middle" font-family="Open Sans, Tahoma, Arial" fill="#ffffff" dominant-baseline="hanging" transform="matrix(1,0,0,1,200,0)" style="display: block;"><tspan dy="0" >[Person]</tspan></text><text  id="v-28" font-size="24px" xml:space="preserve" y="290.3" text-anchor="middle" font-family="Open Sans, Tahoma, Arial" fill="#ffffff" dominant-baseline="hanging" transform="matrix(1,0,0,1,200,0)" style="display: block;"><tspan dy="0" >Принимает заказы,</tspan><tspan dy="1.2em" x="0" >отправляет GPS</tspan></text><g  id="v-29" font-weight="normal" text-anchor="middle" color="#ffffff" transform="matrix(1,0,0,1,197.5,368)" display="none"><g ></g><g ></g><g ></g><g ></g></g><image  id="v-30"></image></g></g><!--z-index:38--><g   id="j_5"  transform="translate(199,1504)" style=""><g  id="v-39" style="opacity: 1;"><rect  x="0" y="160" width="400" height="240" rx="70" id="v-41" stroke-width="2" pointer-events="visiblePainted" fill="#084c61" stroke="#074457" stroke-dasharray=""></rect><circle  cx="200" cy="88.88888888888889" r="88.88888888888889" id="v-40" stroke-width="2" pointer-events="visiblePainted" fill="#084c61" stroke="#074457" stroke-dasharray=""></circle><line  x1="80" y1="266.6666666666667" x2="80" y2="400" id="v-47" stroke="#074457" stroke-width="1" stroke-dasharray=""></line><line  x1="320" y1="266.6666666666667" x2="320" y2="400" id="v-48" stroke="#074457" stroke-width="1" stroke-dasharray=""></line><text  id="v-42" font-size="33.599999999999994px" xml:space="preserve" y="216.9" font-weight="bold" text-anchor="middle" pointer-events="visible" font-family="Open Sans, Tahoma, Arial" fill="#ffffff" dominant-baseline="hanging" transform="matrix(1,0,0,1,200,0)"><tspan dy="0" >Служба поддержки</tspan></text><text  id="v-43" font-size="16.799999999999997px" xml:space="preserve" y="258.5" text-anchor="middle" font-family="Open Sans, Tahoma, Arial" fill="#ffffff" dominant-baseline="hanging" transform="matrix(1,0,0,1,200,0)" style="display: block;"><tspan dy="0" >[Person]</tspan></text><text  id="v-44" font-size="24px" xml:space="preserve" y="290.3" text-anchor="middle" font-family="Open Sans, Tahoma, Arial" fill="#ffffff" dominant-baseline="hanging" transform="matrix(1,0,0,1,200,0)" style="display: block;"><tspan dy="0" >Обрабатывает тикеты и</tspan><tspan dy="1.2em" x="0" >возвраты</tspan></text><g  id="v-45" font-weight="normal" text-anchor="middle" color="#ffffff" transform="matrix(1,0,0,1,197.5,368)" display="none"><g ></g><g ></g><g ></g><g ></g></g><image  id="v-46"></image></g></g><!--z-index:39--><g   id="j_6"  transform="translate(574,1879)" style=""><g  id="v-55" style="opacity: 1;"><rect  x="0" y="160" width="400" height="240" rx="70" id="v-57" stroke-width="2" pointer-events="visiblePainted" fill="#084c61" stroke="#074457" stroke-dasharray=""></rect><circle  cx="200" cy="88.88888888888889" r="88.88888888888889" id="v-56" stroke-width="2" pointer-events="visiblePainted" fill="#084c61" stroke="#074457" stroke-dasharray=""></circle><line  x1="80" y1="266.6666666666667" x2="80" y2="400" id="v-63" stroke="#074457" stroke-width="1" stroke-dasharray=""></line><line  x1="320" y1="266.6666666666667" x2="320" y2="400" id="v-64" stroke="#074457" stroke-width="1" stroke-dasharray=""></line><text  id="v-58" font-size="33.599999999999994px" xml:space="preserve" y="231.3" font-weight="bold" text-anchor="middle" pointer-events="visible" font-family="Open Sans, Tahoma, Arial" fill="#ffffff" dominant-baseline="hanging" transform="matrix(1,0,0,1,200,0)"><tspan dy="0" >Отдел безопасности</tspan></text><text  id="v-59" font-size="16.799999999999997px" xml:space="preserve" y="272.9" text-anchor="middle" font-family="Open Sans, Tahoma, Arial" fill="#ffffff" dominant-baseline="hanging" transform="matrix(1,0,0,1,200,0)" style="display: block;"><tspan dy="0" >[Person]</tspan></text><text  id="v-60" font-size="24px" xml:space="preserve" y="304.7" text-anchor="middle" font-family="Open Sans, Tahoma, Arial" fill="#ffffff" dominant-baseline="hanging" transform="matrix(1,0,0,1,200,0)" style="display: block;"><tspan dy="0" >Обрабатывает жалобы</tspan></text><g  id="v-61" font-weight="normal" text-anchor="middle" color="#ffffff" transform="matrix(1,0,0,1,197.5,368)" display="none"><g ></g><g ></g><g ></g><g ></g></g><image  id="v-62"></image></g></g><!--z-index:40--><g   id="j_7"  transform="translate(2339,2079)" style=""><g  id="v-65" style="opacity: 1;"><rect  id="v-66" rx="1" ry="1" stroke-width="2" pointer-events="visiblePainted" fill="#177e89" stroke="#15717b" stroke-dasharray="" width="450" height="300"></rect><text  id="v-67" font-size="33.599999999999994px" xml:space="preserve" y="101.30000000000001" font-weight="bold" text-anchor="middle" pointer-events="visible" font-family="Open Sans, Tahoma, Arial" fill="#ffffff" dominant-baseline="hanging" transform="matrix(1,0,0,1,225,0)"><tspan dy="0" >Платёжный шлюз</tspan></text><text  id="v-68" font-size="16.799999999999997px" xml:space="preserve" y="142.9" text-anchor="middle" font-family="Open Sans, Tahoma, Arial" fill="#ffffff" dominant-baseline="hanging" transform="matrix(1,0,0,1,225,0)" style="display: block;"><tspan dy="0" >[Software System]</tspan></text><text  id="v-69" font-size="24px" xml:space="preserve" y="174.7" text-anchor="middle" font-family="Open Sans, Tahoma, Arial" fill="#ffffff" dominant-baseline="hanging" transform="matrix(1,0,0,1,225,0)" style="display: block;"><tspan dy="0" >Stripe</tspan></text><g  id="v-70" color="#ffffff" transform="matrix(1,0,0,1,222.5,268)" display="none"><g ></g><g ></g><g ></g><g ></g></g><image  id="v-71"></image></g></g><!--z-index:41--><g   id="j_8"  transform="translate(1759,2289)" style=""><g  id="v-75" style="opacity: 1;"><rect  id="v-76" rx="1" ry="1" stroke-width="2" pointer-events="visiblePainted" fill="#177e89" stroke="#15717b" stroke-dasharray="" width="450" height="300"></rect><text  id="v-77" font-size="33.599999999999994px" xml:space="preserve" y="101.30000000000001" font-weight="bold" text-anchor="middle" pointer-events="visible" font-family="Open Sans, Tahoma, Arial" fill="#ffffff" dominant-baseline="hanging" transform="matrix(1,0,0,1,225,0)"><tspan dy="0" >Гео API</tspan></text><text  id="v-78" font-size="16.799999999999997px" xml:space="preserve" y="142.9" text-anchor="middle" font-family="Open Sans, Tahoma, Arial" fill="#ffffff" dominant-baseline="hanging" transform="matrix(1,0,0,1,225,0)" style="display: block;"><tspan dy="0" >[Software System]</tspan></text><text  id="v-79" font-size="24px" xml:space="preserve" y="174.7" text-anchor="middle" font-family="Open Sans, Tahoma, Arial" fill="#ffffff" dominant-baseline="hanging" transform="matrix(1,0,0,1,225,0)" style="display: block;"><tspan dy="0" >Картография, ETA, маршруты</tspan></text><g  id="v-80" color="#ffffff" transform="matrix(1,0,0,1,222.5,268)" display="none"><g ></g><g ></g><g ></g><g ></g></g><image  id="v-81"></image></g></g><!--z-index:42--><g   id="j_9"  transform="translate(1209,159)" style=""><g  id="v-82" style="opacity: 1;"><rect  id="v-83" rx="1" ry="1" stroke-width="2" pointer-events="visiblePainted" fill="#177e89" stroke="#15717b" stroke-dasharray="" width="450" height="300"></rect><text  id="v-84" font-size="33.599999999999994px" xml:space="preserve" y="101.30000000000001" font-weight="bold" text-anchor="middle" pointer-events="visible" font-family="Open Sans, Tahoma, Arial" fill="#ffffff" dominant-baseline="hanging" transform="matrix(1,0,0,1,225,0)"><tspan dy="0" >SMS-шлюз</tspan></text><text  id="v-85" font-size="16.799999999999997px" xml:space="preserve" y="142.9" text-anchor="middle" font-family="Open Sans, Tahoma, Arial" fill="#ffffff" dominant-baseline="hanging" transform="matrix(1,0,0,1,225,0)" style="display: block;"><tspan dy="0" >[Software System]</tspan></text><text  id="v-86" font-size="24px" xml:space="preserve" y="174.7" text-anchor="middle" font-family="Open Sans, Tahoma, Arial" fill="#ffffff" dominant-baseline="hanging" transform="matrix(1,0,0,1,225,0)" style="display: block;"><tspan dy="0" >Отправка OTP</tspan></text><g  id="v-87" color="#ffffff" transform="matrix(1,0,0,1,222.5,268)" display="none"><g ></g><g ></g><g ></g><g ></g></g><image  id="v-88"></image></g></g><!--z-index:43--><g   id="j_10"  transform="translate(1759,204)" style=""><g  id="v-89" style="opacity: 1;"><rect  id="v-90" rx="1" ry="1" stroke-width="2" pointer-events="visiblePainted" fill="#177e89" stroke="#15717b" stroke-dasharray="" width="450" height="300"></rect><text  id="v-91" font-size="33.599999999999994px" xml:space="preserve" y="101.30000000000001" font-weight="bold" text-anchor="middle" pointer-events="visible" font-family="Open Sans, Tahoma, Arial" fill="#ffffff" dominant-baseline="hanging" transform="matrix(1,0,0,1,225,0)"><tspan dy="0" >Push-сервис</tspan></text><text  id="v-92" font-size="16.799999999999997px" xml:space="preserve" y="142.9" text-anchor="middle" font-family="Open Sans, Tahoma, Arial" fill="#ffffff" dominant-baseline="hanging" transform="matrix(1,0,0,1,225,0)" style="display: block;"><tspan dy="0" >[Software System]</tspan></text><text  id="v-93" font-size="24px" xml:space="preserve" y="174.7" text-anchor="middle" font-family="Open Sans, Tahoma, Arial" fill="#ffffff" dominant-baseline="hanging" transform="matrix(1,0,0,1,225,0)" style="display: block;"><tspan dy="0" >FCM</tspan></text><g  id="v-94" color="#ffffff" transform="matrix(1,0,0,1,222.5,268)" display="none"><g ></g><g ></g><g ></g><g ></g></g><image  id="v-95"></image></g></g><!--z-index:44--><g   id="j_11"  transform="translate(2274,289)" style=""><g  id="v-96" style="opacity: 1;"><rect  id="v-97" rx="1" ry="1" stroke-width="2" pointer-events="visiblePainted" fill="#177e89" stroke="#15717b" stroke-dasharray="" width="450" height="300"></rect><text  id="v-98" font-size="33.599999999999994px" xml:space="preserve" y="101.30000000000001" font-weight="bold" text-anchor="middle" pointer-events="visible" font-family="Open Sans, Tahoma, Arial" fill="#ffffff" dominant-baseline="hanging" transform="matrix(1,0,0,1,225,0)"><tspan dy="0" >Email-сервис</tspan></text><text  id="v-99" font-size="16.799999999999997px" xml:space="preserve" y="142.9" text-anchor="middle" font-family="Open Sans, Tahoma, Arial" fill="#ffffff" dominant-baseline="hanging" transform="matrix(1,0,0,1,225,0)" style="display: block;"><tspan dy="0" >[Software System]</tspan></text><text  id="v-100" font-size="24px" xml:space="preserve" y="174.7" text-anchor="middle" font-family="Open Sans, Tahoma, Arial" fill="#ffffff" dominant-baseline="hanging" transform="matrix(1,0,0,1,225,0)" style="display: block;"><tspan dy="0" >Отправка писем</tspan></text><g  id="v-101" color="#ffffff" transform="matrix(1,0,0,1,222.5,268)" display="none"><g ></g><g ></g><g ></g><g ></g></g><image  id="v-102"></image></g></g><!--z-index:45--><g   id="j_12"  transform="translate(2564,639)" style=""><g  id="v-106" style="opacity: 1;"><rect  id="v-107" rx="1" ry="1" stroke-width="2" pointer-events="visiblePainted" fill="#177e89" stroke="#15717b" stroke-dasharray="" width="450" height="300"></rect><text  id="v-108" font-size="33.599999999999994px" xml:space="preserve" y="101.30000000000001" font-weight="bold" text-anchor="middle" pointer-events="visible" font-family="Open Sans, Tahoma, Arial" fill="#ffffff" dominant-baseline="hanging" transform="matrix(1,0,0,1,225,0)"><tspan dy="0" >Identity Provider</tspan></text><text  id="v-109" font-size="16.799999999999997px" xml:space="preserve" y="142.9" text-anchor="middle" font-family="Open Sans, Tahoma, Arial" fill="#ffffff" dominant-baseline="hanging" transform="matrix(1,0,0,1,225,0)" style="display: block;"><tspan dy="0" >[Software System]</tspan></text><text  id="v-110" font-size="24px" xml:space="preserve" y="174.7" text-anchor="middle" font-family="Open Sans, Tahoma, Arial" fill="#ffffff" dominant-baseline="hanging" transform="matrix(1,0,0,1,225,0)" style="display: block;"><tspan dy="0" >OAuth вход</tspan></text><g  id="v-111" color="#ffffff" transform="matrix(1,0,0,1,222.5,268)" display="none"><g ></g><g ></g><g ></g><g ></g></g><image  id="v-112"></image></g></g><!--z-index:46--><g   id="j_13"  transform="translate(2524,1039)" style=""><g  id="v-113" style="opacity: 1;"><rect  id="v-114" rx="1" ry="1" stroke-width="2" pointer-events="visiblePainted" fill="#177e89" stroke="#15717b" stroke-dasharray="" width="450" height="300"></rect><text  id="v-115" font-size="33.599999999999994px" xml:space="preserve" y="101.30000000000001" font-weight="bold" text-anchor="middle" pointer-events="visible" font-family="Open Sans, Tahoma, Arial" fill="#ffffff" dominant-baseline="hanging" transform="matrix(1,0,0,1,225,0)"><tspan dy="0" >Телеметрия</tspan></text><text  id="v-116" font-size="16.799999999999997px" xml:space="preserve" y="142.9" text-anchor="middle" font-family="Open Sans, Tahoma, Arial" fill="#ffffff" dominant-baseline="hanging" transform="matrix(1,0,0,1,225,0)" style="display: block;"><tspan dy="0" >[Software System]</tspan></text><text  id="v-117" font-size="24px" xml:space="preserve" y="174.7" text-anchor="middle" font-family="Open Sans, Tahoma, Arial" fill="#ffffff" dominant-baseline="hanging" transform="matrix(1,0,0,1,225,0)" style="display: block;"><tspan dy="0" >GPS-потоки</tspan></text><g  id="v-118" color="#ffffff" transform="matrix(1,0,0,1,222.5,268)" display="none"><g ></g><g ></g><g ></g><g ></g></g><image  id="v-119"></image></g></g><!--z-index:47--><g   id="j_14"  transform="translate(1169,2309)" style=""><g  id="v-120" style="opacity: 1;"><rect  id="v-121" rx="1" ry="1" stroke-width="2" pointer-events="visiblePainted" fill="#177e89" stroke="#15717b" stroke-dasharray="" width="450" height="300"></rect><text  id="v-122" font-size="33.599999999999994px" xml:space="preserve" y="101.30000000000001" font-weight="bold" text-anchor="middle" pointer-events="visible" font-family="Open Sans, Tahoma, Arial" fill="#ffffff" dominant-baseline="hanging" transform="matrix(1,0,0,1,225,0)"><tspan dy="0" >Analytics/BI</tspan></text><text  id="v-123" font-size="16.799999999999997px" xml:space="preserve" y="142.9" text-anchor="middle" font-family="Open Sans, Tahoma, Arial" fill="#ffffff" dominant-baseline="hanging" transform="matrix(1,0,0,1,225,0)" style="display: block;"><tspan dy="0" >[Software System]</tspan></text><text  id="v-124" font-size="24px" xml:space="preserve" y="174.7" text-anchor="middle" font-family="Open Sans, Tahoma, Arial" fill="#ffffff" dominant-baseline="hanging" transform="matrix(1,0,0,1,225,0)" style="display: block;"><tspan dy="0" >Метрики и отчёты</tspan></text><g  id="v-125" color="#ffffff" transform="matrix(1,0,0,1,222.5,268)" display="none"><g ></g><g ></g><g ></g><g ></g></g><image  id="v-126"></image></g></g><!--z-index:48--><g   id="j_15"  transform="translate(2599,1569)" style=""><g  id="v-133" style="opacity: 1;"><rect  id="v-134" rx="1" ry="1" stroke-width="2" pointer-events="visiblePainted" fill="#177e89" stroke="#15717b" stroke-dasharray="" width="450" height="300"></rect><text  id="v-135" font-size="33.599999999999994px" xml:space="preserve" y="86.9" font-weight="bold" text-anchor="middle" pointer-events="visible" font-family="Open Sans, Tahoma, Arial" fill="#ffffff" dominant-baseline="hanging" transform="matrix(1,0,0,1,225,0)"><tspan dy="0" >External Fraud Service</tspan></text><text  id="v-136" font-size="16.799999999999997px" xml:space="preserve" y="128.5" text-anchor="middle" font-family="Open Sans, Tahoma, Arial" fill="#ffffff" dominant-baseline="hanging" transform="matrix(1,0,0,1,225,0)" style="display: block;"><tspan dy="0" >[Software System]</tspan></text><text  id="v-137" font-size="24px" xml:space="preserve" y="160.3" text-anchor="middle" font-family="Open Sans, Tahoma, Arial" fill="#ffffff" dominant-baseline="hanging" transform="matrix(1,0,0,1,225,0)" style="display: block;"><tspan dy="0" >Сервис продвинутой оценки</tspan><tspan dy="1.2em" x="0" >мошенничества</tspan></text><g  id="v-138" color="#ffffff" transform="matrix(1,0,0,1,222.5,268)" display="none"><g ></g><g ></g><g ></g><g ></g></g><image  id="v-139"></image></g></g><!--z-index:49--><g   id="j_16"  transform="translate(1459,1164)" style=""><g  id="v-146" style="opacity: 1;"><rect  id="v-147" rx="1" ry="1" stroke-width="2" pointer-events="visiblePainted" fill="#177e89" stroke="#15717b" stroke-dasharray="" width="450" height="300"></rect><text  id="v-148" font-size="33.599999999999994px" xml:space="preserve" y="81.14000000000001" font-weight="bold" text-anchor="middle" pointer-events="visible" font-family="Open Sans, Tahoma, Arial" fill="#ffffff" dominant-baseline="hanging" transform="matrix(1,0,0,1,225,0)"><tspan dy="0" >Система заказа</tspan><tspan dy="1.2em" x="0" >поездок</tspan></text><text  id="v-149" font-size="16.799999999999997px" xml:space="preserve" y="163.06" text-anchor="middle" font-family="Open Sans, Tahoma, Arial" fill="#ffffff" dominant-baseline="hanging" transform="matrix(1,0,0,1,225,0)" style="display: block;"><tspan dy="0" >[Software System]</tspan></text><text  id="v-150" font-size="24px" xml:space="preserve" y="194.86" text-anchor="middle" font-family="Open Sans, Tahoma, Arial" fill="#ffffff" dominant-baseline="hanging" transform="matrix(1,0,0,1,225,0)" style="display: block;"><tspan dy="0" >Платформа вызова такси</tspan></text><g  id="v-151" color="#ffffff" transform="matrix(1,0,0,1,210,268)" display="none"><g  transform="translate(5 0)"><svg xmlns="http://www.w3.org/2000/svg" width="20" height="20" fill="currentColor" viewBox="0 0 16 16"><path fill-rule="evenodd" d="M6.5 12a5.5 5.5 0 1 0 0-11 5.5 5.5 0 0 0 0 11zM13 6.5a6.5 6.5 0 1 1-13 0 6.5 6.5 0 0 1 13 0z"></path><path d="M10.344 11.742c.03.04.062.078.098.115l3.85 3.85a1 1 0 0 0 1.415-1.414l-3.85-3.85a1.007 1.007 0 0 0-.115-.1 6.538 6.538 0 0 1-1.398 1.4z"></path><path fill-rule="evenodd" d="M6.5 3a.5.5 0 0 1 .5.5V6h2.5a.5.5 0 0 1 0 1H7v2.5a.5.5 0 0 1-1 0V7H3.5a.5.5 0 0 1 0-1H6V3.5a.5.5 0 0 1 .5-.5z"></path></svg></g><g ></g><g ></g><g ></g></g><image  id="v-152"></image></g></g><!--z-index:50--><g   id="j_17" ><path  stroke="#444444" d="M 2463 2079 L 2205 1697 C 2201 1691.6666666666665 2196.333333333333 1687 2191 1683 L 1890 1464" id="v-165" stroke-width="2" stroke-dasharray="8 8" fill="none" style="opacity: 1;"></path><path  fill="black" stroke="black" d="M 0 0 0 0" transform="matrix(-0.5599980669948776,-0.8284939136541684,0.8284939136541684,-0.5599980669948776,2462.610107421875,2079)"></path><path  fill="#444444" stroke="#444444" d="M 20 0 L 0 10 L 20 20 z" id="v-167" transform="matrix(0.8083965417621901,0.588638285593905,-0.588638285593905,0.8083965417621901,1895.8864018133168,1455.9160042655012)" style="opacity: 1;"></path><path  d="M 2463 2079 L 2205 1697 C 2201 1691.6666666666665 2196.333333333333 1687 2191 1683 L 1890 1464" id="v-166" fill="none" style="cursor: default;"></path><g ><g id="v-159"  label-idx="0" cursor="move" transform="matrix(1,0,0,1,2224.271240234375,1725.5333251953125)" style="cursor: default; opacity: 1;"><rect joint-selector="rect" id="v-162" fill="#ffffff" rx="3" ry="3" pointer-events="none" width="148.38084411621094" height="64.74184036254883" transform="matrix(1,0,0,1,-76.3,-32.4)"></rect><text joint-selector="text" id="v-161" font-size="24px" xml:space="preserve" y="0.8em" fill="#444444" text-anchor="middle" pointer-events="none" font-family="Open Sans, Tahoma, Arial" font-weight="normal" transform="matrix(1,0,0,1,0,-22.8)"><tspan dy="0" >Отправляет</tspan><tspan dy="1.2em" x="0" >вебхуки</tspan></text></g><g id="v-160"  label-idx="1" cursor="move" transform="matrix(1,0,0,1,2214.271240234375,1751.933349609375)" style="cursor: default; opacity: 1;"><rect joint-selector="rect" id="v-164" fill="#ffffff" rx="3" ry="3"  width="0" height="0" transform="matrix(1,0,0,1,0,0)" display="none"></rect><text joint-selector="text" id="v-163" fill="#000000" font-size="14" text-anchor="middle" pointer-events="none"></text></g></g><g  display="none"><g  transform="translate(2199, 1689)" id="v-902"><circle  idx="0" r="10"></circle><path  idx="0" d="M16,5.333c-7.732,0-14,4.701-14,10.5c0,1.982,0.741,3.833,2.016,5.414L2,25.667l5.613-1.441c2.339,1.317,5.237,2.107,8.387,2.107c7.732,0,14-4.701,14-10.5C30,10.034,23.732,5.333,16,5.333z" transform="translate(5, -33)"></path><path  idx="0" transform="scale(.8) translate(9.5, -37)" d="M24.778,21.419 19.276,15.917 24.777,10.415 21.949,7.585 16.447,13.087 10.945,7.585 8.117,10.415 13.618,15.917 8.116,21.419 10.946,24.248 16.447,18.746 21.948,24.248z"><title>Remove vertex.</title></path></g></g><g  id="v-169" display="none"><g  id="v-157"><path  end="source" d="M 26 0 L 0 13 L 26 26 z"></path></g><g  id="v-158"><path  end="target" d="M 26 0 L 0 13 L 26 26 z"></path></g></g><g  id="v-168" display="none"><g  id="v-156" transform="translate(2440.612144616509, 2045.8520900911099) "><g  event="remove"><circle r="11"></circle><path transform="scale(.8) translate(-16, -16)" d="M24.778,21.419 19.276,15.917 24.777,10.415 21.949,7.585 16.447,13.087 10.945,7.585 8.117,10.415 13.618,15.917 8.116,21.419 10.946,24.248 16.447,18.746 21.948,24.248z"></path><title>Remove link.</title></g><g  event="link:options"><circle r="11" transform="translate(25)"></circle><path fill="white" transform="scale(.55) translate(29, -16)" d="M31.229,17.736c0.064-0.571,0.104-1.148,0.104-1.736s-0.04-1.166-0.104-1.737l-4.377-1.557c-0.218-0.716-0.504-1.401-0.851-2.05l1.993-4.192c-0.725-0.91-1.549-1.734-2.458-2.459l-4.193,1.994c-0.647-0.347-1.334-0.632-2.049-0.849l-1.558-4.378C17.165,0.708,16.588,0.667,16,0.667s-1.166,0.041-1.737,0.105L12.707,5.15c-0.716,0.217-1.401,0.502-2.05,0.849L6.464,4.005C5.554,4.73,4.73,5.554,4.005,6.464l1.994,4.192c-0.347,0.648-0.632,1.334-0.849,2.05l-4.378,1.557C0.708,14.834,0.667,15.412,0.667,16s0.041,1.165,0.105,1.736l4.378,1.558c0.217,0.715,0.502,1.401,0.849,2.049l-1.994,4.193c0.725,0.909,1.549,1.733,2.459,2.458l4.192-1.993c0.648,0.347,1.334,0.633,2.05,0.851l1.557,4.377c0.571,0.064,1.148,0.104,1.737,0.104c0.588,0,1.165-0.04,1.736-0.104l1.558-4.377c0.715-0.218,1.399-0.504,2.049-0.851l4.193,1.993c0.909-0.725,1.733-1.549,2.458-2.458l-1.993-4.193c0.347-0.647,0.633-1.334,0.851-2.049L31.229,17.736zM16,20.871c-2.69,0-4.872-2.182-4.872-4.871c0-2.69,2.182-4.872,4.872-4.872c2.689,0,4.871,2.182,4.871,4.872C20.871,18.689,18.689,20.871,16,20.871z"></path><title>Link options.</title></g></g></g></g><!--z-index:51--><g   id="j_18" ><path  stroke="#444444" d="M 1647 1164 L 1471 459" id="v-182" stroke-width="2" stroke-dasharray="8 8" fill="none" style="opacity: 1;"></path><path  fill="black" stroke="black" d="M 0 0 0 0" transform="matrix(-0.24140815181773068,-0.9704236725451144,0.9704236725451144,-0.24140815181773068,1646.68994140625,1164)"></path><path  fill="#444444" stroke="#444444" d="M 20 0 L 0 10 L 20 20 z" id="v-184" transform="matrix(0.2414084102571789,0.9704236082542003,-0.9704236082542003,0.2414084102571789,1481.01427307372,456.5859034476983)" style="opacity: 1;"></path><path  d="M 1647 1164 L 1471 459" id="v-183" fill="none" style="cursor: default;"></path><g ><g id="v-176"  label-idx="0" cursor="move" transform="matrix(1,0,0,1,1559,811.5)" style="cursor: default; opacity: 1;"><rect joint-selector="rect" id="v-179" fill="#ffffff" rx="3" ry="3" pointer-events="none" width="200.52117919921875" height="35.941837310791016" transform="matrix(1,0,0,1,-103.3,-18)"></rect><text joint-selector="text" id="v-178" font-size="24px" xml:space="preserve" y="0.8em" fill="#444444" text-anchor="middle" pointer-events="none" font-family="Open Sans, Tahoma, Arial" font-weight="normal" transform="matrix(1,0,0,1,0,-8.4)"><tspan dy="0" >Отправляет SMS</tspan></text></g><g id="v-177"  label-idx="1" cursor="move" transform="matrix(1,0,0,1,1549,823.5)" style="cursor: default; opacity: 1;"><rect joint-selector="rect" id="v-181" fill="#ffffff" rx="3" ry="3"  width="0" height="0" transform="matrix(1,0,0,1,0,0)" display="none"></rect><text joint-selector="text" id="v-180" fill="#000000" font-size="14" text-anchor="middle" pointer-events="none"></text></g></g><g  display="none"></g><g  id="v-186" display="none"><g  id="v-174"><path  end="source" d="M 26 0 L 0 13 L 26 26 z"></path></g><g  id="v-175"><path  end="target" d="M 26 0 L 0 13 L 26 26 z"></path></g></g><g  id="v-185" display="none"><g  id="v-173" transform="translate(1637.311528041573, 1125.1910640301646) "><g  event="remove"><circle r="11"></circle><path transform="scale(.8) translate(-16, -16)" d="M24.778,21.419 19.276,15.917 24.777,10.415 21.949,7.585 16.447,13.087 10.945,7.585 8.117,10.415 13.618,15.917 8.116,21.419 10.946,24.248 16.447,18.746 21.948,24.248z"></path><title>Remove link.</title></g><g  event="link:options"><circle r="11" transform="translate(25)"></circle><path fill="white" transform="scale(.55) translate(29, -16)" d="M31.229,17.736c0.064-0.571,0.104-1.148,0.104-1.736s-0.04-1.166-0.104-1.737l-4.377-1.557c-0.218-0.716-0.504-1.401-0.851-2.05l1.993-4.192c-0.725-0.91-1.549-1.734-2.458-2.459l-4.193,1.994c-0.647-0.347-1.334-0.632-2.049-0.849l-1.558-4.378C17.165,0.708,16.588,0.667,16,0.667s-1.166,0.041-1.737,0.105L12.707,5.15c-0.716,0.217-1.401,0.502-2.05,0.849L6.464,4.005C5.554,4.73,4.73,5.554,4.005,6.464l1.994,4.192c-0.347,0.648-0.632,1.334-0.849,2.05l-4.378,1.557C0.708,14.834,0.667,15.412,0.667,16s0.041,1.165,0.105,1.736l4.378,1.558c0.217,0.715,0.502,1.401,0.849,2.049l-1.994,4.193c0.725,0.909,1.549,1.733,2.459,2.458l4.192-1.993c0.648,0.347,1.334,0.633,2.05,0.851l1.557,4.377c0.571,0.064,1.148,0.104,1.737,0.104c0.588,0,1.165-0.04,1.736-0.104l1.558-4.377c0.715-0.218,1.399-0.504,2.049-0.851l4.193,1.993c0.909-0.725,1.733-1.549,2.458-2.458l-1.993-4.193c0.347-0.647,0.633-1.334,0.851-2.049L31.229,17.736zM16,20.871c-2.69,0-4.872-2.182-4.872-4.871c0-2.69,2.182-4.872,4.872-4.872c2.689,0,4.871,2.182,4.871,4.872C20.871,18.689,18.689,20.871,16,20.871z"></path><title>Link options.</title></g></g></g></g><!--z-index:52--><g   id="j_19" ><path  stroke="#444444" d="M 1731 1164 L 1937 504" id="v-199" stroke-width="2" stroke-dasharray="8 8" fill="none" style="opacity: 1;"></path><path  fill="black" stroke="black" d="M 0 0 0 0" transform="matrix(0.2982751561852386,-0.9544799270821108,0.9544799270821108,0.2982751561852386,1730.8800048828125,1164)"></path><path  fill="#444444" stroke="#444444" d="M 20 0 L 0 10 L 20 20 z" id="v-201" transform="matrix(-0.29827502908854625,0.9544799667998417,-0.9544799667998417,-0.29827502908854625,1946.674766755759,506.9827504275741)" style="opacity: 1;"></path><path  d="M 1731 1164 L 1937 504" id="v-200" fill="none" style="cursor: default;"></path><g ><g id="v-193"  label-idx="0" cursor="move" transform="matrix(1,0,0,1,1834,834)" style="cursor: default; opacity: 1;"><rect joint-selector="rect" id="v-196" fill="#ffffff" rx="3" ry="3" pointer-events="none" width="206.66555786132812" height="64.74184036254883" transform="matrix(1,0,0,1,-106.9,-32.4)"></rect><text joint-selector="text" id="v-195" font-size="24px" xml:space="preserve" y="0.8em" fill="#444444" text-anchor="middle" pointer-events="none" font-family="Open Sans, Tahoma, Arial" font-weight="normal" transform="matrix(1,0,0,1,0,-22.8)"><tspan dy="0" >Отправляет Push</tspan><tspan dy="1.2em" x="0" >уведомления</tspan></text></g><g id="v-194"  label-idx="1" cursor="move" transform="matrix(1,0,0,1,1824,860.4000244140625)" style="cursor: default; opacity: 1;"><rect joint-selector="rect" id="v-198" fill="#ffffff" rx="3" ry="3"  width="0" height="0" transform="matrix(1,0,0,1,0,0)" display="none"></rect><text joint-selector="text" id="v-197" fill="#000000" font-size="14" text-anchor="middle" pointer-events="none"></text></g></g><g  display="none"></g><g  id="v-203" display="none"><g  id="v-191"><path  end="source" d="M 26 0 L 0 13 L 26 26 z"></path></g><g  id="v-192"><path  end="target" d="M 26 0 L 0 13 L 26 26 z"></path></g></g><g  id="v-202" display="none"><g  id="v-190" transform="translate(1742.9178224154493, 1125.8166854650647) "><g  event="remove"><circle r="11"></circle><path transform="scale(.8) translate(-16, -16)" d="M24.778,21.419 19.276,15.917 24.777,10.415 21.949,7.585 16.447,13.087 10.945,7.585 8.117,10.415 13.618,15.917 8.116,21.419 10.946,24.248 16.447,18.746 21.948,24.248z"></path><title>Remove link.</title></g><g  event="link:options"><circle r="11" transform="translate(25)"></circle><path fill="white" transform="scale(.55) translate(29, -16)" d="M31.229,17.736c0.064-0.571,0.104-1.148,0.104-1.736s-0.04-1.166-0.104-1.737l-4.377-1.557c-0.218-0.716-0.504-1.401-0.851-2.05l1.993-4.192c-0.725-0.91-1.549-1.734-2.458-2.459l-4.193,1.994c-0.647-0.347-1.334-0.632-2.049-0.849l-1.558-4.378C17.165,0.708,16.588,0.667,16,0.667s-1.166,0.041-1.737,0.105L12.707,5.15c-0.716,0.217-1.401,0.502-2.05,0.849L6.464,4.005C5.554,4.73,4.73,5.554,4.005,6.464l1.994,4.192c-0.347,0.648-0.632,1.334-0.849,2.05l-4.378,1.557C0.708,14.834,0.667,15.412,0.667,16s0.041,1.165,0.105,1.736l4.378,1.558c0.217,0.715,0.502,1.401,0.849,2.049l-1.994,4.193c0.725,0.909,1.549,1.733,2.459,2.458l4.192-1.993c0.648,0.347,1.334,0.633,2.05,0.851l1.557,4.377c0.571,0.064,1.148,0.104,1.737,0.104c0.588,0,1.165-0.04,1.736-0.104l1.558-4.377c0.715-0.218,1.399-0.504,2.049-0.851l4.193,1.993c0.909-0.725,1.733-1.549,2.458-2.458l-1.993-4.193c0.347-0.647,0.633-1.334,0.851-2.049L31.229,17.736zM16,20.871c-2.69,0-4.872-2.182-4.872-4.871c0-2.69,2.182-4.872,4.872-4.872c2.689,0,4.871,2.182,4.871,4.872C20.871,18.689,18.689,20.871,16,20.871z"></path><title>Link options.</title></g></g></g></g><!--z-index:53--><g   id="j_20" ><path  stroke="#444444" d="M 1824 1164 L 2359 589" id="v-216" stroke-width="2" stroke-dasharray="8 8" fill="none" style="opacity: 1;"></path><path  fill="black" stroke="black" d="M 0 0 0 0" transform="matrix(0.6815787105532782,-0.7317448061452371,0.7317448061452371,0.6815787105532782,1823.7099609375,1164)"></path><path  fill="#444444" stroke="#444444" d="M 20 0 L 0 10 L 20 20 z" id="v-218" transform="matrix(-0.6815789054286835,0.731744624629821,-0.731744624629821,-0.6815789054286835,2366.6073563943355,595.8157866556445)" style="opacity: 1;"></path><path  d="M 1824 1164 L 2359 589" id="v-217" fill="none" style="cursor: default;"></path><g ><g id="v-210"  label-idx="0" cursor="move" transform="matrix(1,0,0,1,2091.5,876.5)" style="cursor: default; opacity: 1;"><rect joint-selector="rect" id="v-213" fill="#ffffff" rx="3" ry="3" pointer-events="none" width="148.38084411621094" height="64.74184036254883" transform="matrix(1,0,0,1,-76.3,-32.4)"></rect><text joint-selector="text" id="v-212" font-size="24px" xml:space="preserve" y="0.8em" fill="#444444" text-anchor="middle" pointer-events="none" font-family="Open Sans, Tahoma, Arial" font-weight="normal" transform="matrix(1,0,0,1,0,-22.8)"><tspan dy="0" >Отправляет</tspan><tspan dy="1.2em" x="0" >письма</tspan></text></g><g id="v-211"  label-idx="1" cursor="move" transform="matrix(1,0,0,1,2081.5,902.9000244140625)" style="cursor: default; opacity: 1;"><rect joint-selector="rect" id="v-215" fill="#ffffff" rx="3" ry="3"  width="0" height="0" transform="matrix(1,0,0,1,0,0)" display="none"></rect><text joint-selector="text" id="v-214" fill="#000000" font-size="14" text-anchor="middle" pointer-events="none"></text></g></g><g  display="none"></g><g  id="v-220" display="none"><g  id="v-208"><path  end="source" d="M 26 0 L 0 13 L 26 26 z"></path></g><g  id="v-209"><path  end="target" d="M 26 0 L 0 13 L 26 26 z"></path></g></g><g  id="v-219" display="none"><g  id="v-207" transform="translate(1851.2473323324473, 1134.7154839417624) "><g  event="remove"><circle r="11"></circle><path transform="scale(.8) translate(-16, -16)" d="M24.778,21.419 19.276,15.917 24.777,10.415 21.949,7.585 16.447,13.087 10.945,7.585 8.117,10.415 13.618,15.917 8.116,21.419 10.946,24.248 16.447,18.746 21.948,24.248z"></path><title>Remove link.</title></g><g  event="link:options"><circle r="11" transform="translate(25)"></circle><path fill="white" transform="scale(.55) translate(29, -16)" d="M31.229,17.736c0.064-0.571,0.104-1.148,0.104-1.736s-0.04-1.166-0.104-1.737l-4.377-1.557c-0.218-0.716-0.504-1.401-0.851-2.05l1.993-4.192c-0.725-0.91-1.549-1.734-2.458-2.459l-4.193,1.994c-0.647-0.347-1.334-0.632-2.049-0.849l-1.558-4.378C17.165,0.708,16.588,0.667,16,0.667s-1.166,0.041-1.737,0.105L12.707,5.15c-0.716,0.217-1.401,0.502-2.05,0.849L6.464,4.005C5.554,4.73,4.73,5.554,4.005,6.464l1.994,4.192c-0.347,0.648-0.632,1.334-0.849,2.05l-4.378,1.557C0.708,14.834,0.667,15.412,0.667,16s0.041,1.165,0.105,1.736l4.378,1.558c0.217,0.715,0.502,1.401,0.849,2.049l-1.994,4.193c0.725,0.909,1.549,1.733,2.459,2.458l4.192-1.993c0.648,0.347,1.334,0.633,2.05,0.851l1.557,4.377c0.571,0.064,1.148,0.104,1.737,0.104c0.588,0,1.165-0.04,1.736-0.104l1.558-4.377c0.715-0.218,1.399-0.504,2.049-0.851l4.193,1.993c0.909-0.725,1.733-1.549,2.458-2.458l-1.993-4.193c0.347-0.647,0.633-1.334,0.851-2.049L31.229,17.736zM16,20.871c-2.69,0-4.872-2.182-4.872-4.871c0-2.69,2.182-4.872,4.872-4.872c2.689,0,4.871,2.182,4.871,4.872C20.871,18.689,18.689,20.871,16,20.871z"></path><title>Link options.</title></g></g></g></g><!--z-index:54--><g   id="j_21" ><path  stroke="#444444" d="M 1909 1207 L 2564 896" id="v-230" stroke-width="2" stroke-dasharray="8 8" fill="none" style="opacity: 1;"></path><path  fill="black" stroke="black" d="M 0 0 0 0" transform="matrix(0.9032373036525776,-0.4291414373961355,0.4291414373961355,0.9032373036525776,1909,1207.0999755859375)"></path><path  fill="#444444" stroke="#444444" d="M 20 0 L 0 10 L 20 20 z" id="v-232" transform="matrix(-0.9032374179398235,0.4291411968494759,-0.4291411968494759,-0.9032374179398235,2568.2913154447683,904.9323684609033)" style="opacity: 1;"></path><path  d="M 1909 1207 L 2564 896" id="v-231" fill="none" style="cursor: default;"></path><g ><g id="v-224"  label-idx="0" cursor="move" transform="matrix(1,0,0,1,2236.5,1051.5)" style="cursor: default; opacity: 1;"><rect joint-selector="rect" id="v-227" fill="#ffffff" rx="3" ry="3" pointer-events="none" width="140.10548400878906" height="35.941837310791016" transform="matrix(1,0,0,1,-73.3,-18)"></rect><text joint-selector="text" id="v-226" font-size="24px" xml:space="preserve" y="0.8em" fill="#444444" text-anchor="middle" pointer-events="none" font-family="Open Sans, Tahoma, Arial" font-weight="normal" transform="matrix(1,0,0,1,0,-8.4)"><tspan dy="0" >OAuth вход</tspan></text></g><g id="v-225"  label-idx="1" cursor="move" transform="matrix(1,0,0,1,2226.5,1063.5)" style="cursor: default; opacity: 1;"><rect joint-selector="rect" id="v-229" fill="#ffffff" rx="3" ry="3"  width="0" height="0" transform="matrix(1,0,0,1,0,0)" display="none"></rect><text joint-selector="text" id="v-228" fill="#000000" font-size="14" text-anchor="middle" pointer-events="none"></text></g></g><g  display="none"></g><g  id="v-234" display="none"><g  id="v-222"><path  end="source" d="M 26 0 L 0 13 L 26 26 z"></path></g><g  id="v-223"><path  end="target" d="M 26 0 L 0 13 L 26 26 z"></path></g></g><g  id="v-233" display="none"><g  id="v-221" transform="translate(1945.1337722379567, 1189.8433539450314) "><g  event="remove"><circle r="11"></circle><path transform="scale(.8) translate(-16, -16)" d="M24.778,21.419 19.276,15.917 24.777,10.415 21.949,7.585 16.447,13.087 10.945,7.585 8.117,10.415 13.618,15.917 8.116,21.419 10.946,24.248 16.447,18.746 21.948,24.248z"></path><title>Remove link.</title></g><g  event="link:options"><circle r="11" transform="translate(25)"></circle><path fill="white" transform="scale(.55) translate(29, -16)" d="M31.229,17.736c0.064-0.571,0.104-1.148,0.104-1.736s-0.04-1.166-0.104-1.737l-4.377-1.557c-0.218-0.716-0.504-1.401-0.851-2.05l1.993-4.192c-0.725-0.91-1.549-1.734-2.458-2.459l-4.193,1.994c-0.647-0.347-1.334-0.632-2.049-0.849l-1.558-4.378C17.165,0.708,16.588,0.667,16,0.667s-1.166,0.041-1.737,0.105L12.707,5.15c-0.716,0.217-1.401,0.502-2.05,0.849L6.464,4.005C5.554,4.73,4.73,5.554,4.005,6.464l1.994,4.192c-0.347,0.648-0.632,1.334-0.849,2.05l-4.378,1.557C0.708,14.834,0.667,15.412,0.667,16s0.041,1.165,0.105,1.736l4.378,1.558c0.217,0.715,0.502,1.401,0.849,2.049l-1.994,4.193c0.725,0.909,1.549,1.733,2.459,2.458l4.192-1.993c0.648,0.347,1.334,0.633,2.05,0.851l1.557,4.377c0.571,0.064,1.148,0.104,1.737,0.104c0.588,0,1.165-0.04,1.736-0.104l1.558-4.377c0.715-0.218,1.399-0.504,2.049-0.851l4.193,1.993c0.909-0.725,1.733-1.549,2.458-2.458l-1.993-4.193c0.347-0.647,0.633-1.334,0.851-2.049L31.229,17.736zM16,20.871c-2.69,0-4.872-2.182-4.872-4.871c0-2.69,2.182-4.872,4.872-4.872c2.689,0,4.871,2.182,4.871,4.872C20.871,18.689,18.689,20.871,16,20.871z"></path><title>Link options.</title></g></g></g></g><!--z-index:55--><g   id="j_22" ><path  stroke="#444444" d="M 1909 1288 L 2524 1215" id="v-247" stroke-width="2" stroke-dasharray="8 8" fill="none" style="opacity: 1;"></path><path  fill="black" stroke="black" d="M 0 0 0 0" transform="matrix(0.9931829855009523,-0.1165656781021551,0.1165656781021551,0.9931829855009523,1909,1287.5899658203125)"></path><path  fill="#444444" stroke="#444444" d="M 20 0 L 0 10 L 20 20 z" id="v-249" transform="matrix(-0.9931829855009522,0.11656567810215542,-0.11656567810215542,-0.9931829855009522,2525.1656018704066,1225.3418566677378)" style="opacity: 1;"></path><path  d="M 1909 1288 L 2524 1215" id="v-248" fill="none" style="cursor: default;"></path><g ><g id="v-241"  label-idx="0" cursor="move" transform="matrix(1,0,0,1,2216.5,1251.5)" style="cursor: default; opacity: 1;"><rect joint-selector="rect" id="v-244" fill="#ffffff" rx="3" ry="3" pointer-events="none" width="184.34494018554688" height="64.74184036254883" transform="matrix(1,0,0,1,-95.2,-32.4)"></rect><text joint-selector="text" id="v-243" font-size="24px" xml:space="preserve" y="0.8em" fill="#444444" text-anchor="middle" pointer-events="none" font-family="Open Sans, Tahoma, Arial" font-weight="normal" transform="matrix(1,0,0,1,0,-22.8)"><tspan dy="0" >Опциональная</tspan><tspan dy="1.2em" x="0" >GPS лента</tspan></text></g><g id="v-242"  label-idx="1" cursor="move" transform="matrix(1,0,0,1,2206.5,1277.9000244140625)" style="cursor: default; opacity: 1;"><rect joint-selector="rect" id="v-246" fill="#ffffff" rx="3" ry="3"  width="0" height="0" transform="matrix(1,0,0,1,0,0)" display="none"></rect><text joint-selector="text" id="v-245" fill="#000000" font-size="14" text-anchor="middle" pointer-events="none"></text></g></g><g  display="none"></g><g  id="v-251" display="none"><g  id="v-239"><path  end="source" d="M 26 0 L 0 13 L 26 26 z"></path></g><g  id="v-240"><path  end="target" d="M 26 0 L 0 13 L 26 26 z"></path></g></g><g  id="v-250" display="none"><g  id="v-238" transform="translate(1948.7211532326417, 1283.285131404906) "><g  event="remove"><circle r="11"></circle><path transform="scale(.8) translate(-16, -16)" d="M24.778,21.419 19.276,15.917 24.777,10.415 21.949,7.585 16.447,13.087 10.945,7.585 8.117,10.415 13.618,15.917 8.116,21.419 10.946,24.248 16.447,18.746 21.948,24.248z"></path><title>Remove link.</title></g><g  event="link:options"><circle r="11" transform="translate(25)"></circle><path fill="white" transform="scale(.55) translate(29, -16)" d="M31.229,17.736c0.064-0.571,0.104-1.148,0.104-1.736s-0.04-1.166-0.104-1.737l-4.377-1.557c-0.218-0.716-0.504-1.401-0.851-2.05l1.993-4.192c-0.725-0.91-1.549-1.734-2.458-2.459l-4.193,1.994c-0.647-0.347-1.334-0.632-2.049-0.849l-1.558-4.378C17.165,0.708,16.588,0.667,16,0.667s-1.166,0.041-1.737,0.105L12.707,5.15c-0.716,0.217-1.401,0.502-2.05,0.849L6.464,4.005C5.554,4.73,4.73,5.554,4.005,6.464l1.994,4.192c-0.347,0.648-0.632,1.334-0.849,2.05l-4.378,1.557C0.708,14.834,0.667,15.412,0.667,16s0.041,1.165,0.105,1.736l4.378,1.558c0.217,0.715,0.502,1.401,0.849,2.049l-1.994,4.193c0.725,0.909,1.549,1.733,2.459,2.458l4.192-1.993c0.648,0.347,1.334,0.633,2.05,0.851l1.557,4.377c0.571,0.064,1.148,0.104,1.737,0.104c0.588,0,1.165-0.04,1.736-0.104l1.558-4.377c0.715-0.218,1.399-0.504,2.049-0.851l4.193,1.993c0.909-0.725,1.733-1.549,2.458-2.458l-1.993-4.193c0.347-0.647,0.633-1.334,0.851-2.049L31.229,17.736zM16,20.871c-2.69,0-4.872-2.182-4.872-4.871c0-2.69,2.182-4.872,4.872-4.872c2.689,0,4.871,2.182,4.871,4.872C20.871,18.689,18.689,20.871,16,20.871z"></path><title>Link options.</title></g></g></g></g><!--z-index:56--><g   id="j_23" ><path  stroke="#444444" d="M 1909 1394 L 2599 1639" id="v-264" stroke-width="2" stroke-dasharray="8 8" fill="none" style="opacity: 1;"></path><path  fill="black" stroke="black" d="M 0 0 0 0" transform="matrix(0.9422980022753242,0.334775260298507,-0.334775260298507,0.9422980022753242,1909,1393.9300537109375)"></path><path  fill="#444444" stroke="#444444" d="M 20 0 L 0 10 L 20 20 z" id="v-266" transform="matrix(-0.9422980245643333,-0.3347751975612219,0.3347751975612219,-0.9422980245643333,2595.6521325669064,1648.4930222603182)" style="opacity: 1;"></path><path  d="M 1909 1394 L 2599 1639" id="v-265" fill="none" style="cursor: default;"></path><g ><g id="v-258"  label-idx="0" cursor="move" transform="matrix(1,0,0,1,2254,1516.5)" style="cursor: default; opacity: 1;"><rect joint-selector="rect" id="v-261" fill="#ffffff" rx="3" ry="3" pointer-events="none" width="190.37940979003906" height="93.54184341430664" transform="matrix(1,0,0,1,-98.8,-46.8)"></rect><text joint-selector="text" id="v-260" font-size="24px" xml:space="preserve" y="0.8em" fill="#444444" text-anchor="middle" pointer-events="none" font-family="Open Sans, Tahoma, Arial" font-weight="normal" transform="matrix(1,0,0,1,0,-37.2)"><tspan dy="0" >Опциональный</tspan><tspan dy="1.2em" x="0" >продвинутый</tspan><tspan dy="1.2em" x="0" >скоринг</tspan></text></g><g id="v-259"  label-idx="1" cursor="move" transform="matrix(1,0,0,1,2244,1557.300048828125)" style="cursor: default; opacity: 1;"><rect joint-selector="rect" id="v-263" fill="#ffffff" rx="3" ry="3"  width="0" height="0" transform="matrix(1,0,0,1,0,0)" display="none"></rect><text joint-selector="text" id="v-262" fill="#000000" font-size="14" text-anchor="middle" pointer-events="none"></text></g></g><g  display="none"></g><g  id="v-268" display="none"><g  id="v-256"><path  end="source" d="M 26 0 L 0 13 L 26 26 z"></path></g><g  id="v-257"><path  end="target" d="M 26 0 L 0 13 L 26 26 z"></path></g></g><g  id="v-267" display="none"><g  id="v-255" transform="translate(1946.6943320931875, 1407.3842193664218) "><g  event="remove"><circle r="11"></circle><path transform="scale(.8) translate(-16, -16)" d="M24.778,21.419 19.276,15.917 24.777,10.415 21.949,7.585 16.447,13.087 10.945,7.585 8.117,10.415 13.618,15.917 8.116,21.419 10.946,24.248 16.447,18.746 21.948,24.248z"></path><title>Remove link.</title></g><g  event="link:options"><circle r="11" transform="translate(25)"></circle><path fill="white" transform="scale(.55) translate(29, -16)" d="M31.229,17.736c0.064-0.571,0.104-1.148,0.104-1.736s-0.04-1.166-0.104-1.737l-4.377-1.557c-0.218-0.716-0.504-1.401-0.851-2.05l1.993-4.192c-0.725-0.91-1.549-1.734-2.458-2.459l-4.193,1.994c-0.647-0.347-1.334-0.632-2.049-0.849l-1.558-4.378C17.165,0.708,16.588,0.667,16,0.667s-1.166,0.041-1.737,0.105L12.707,5.15c-0.716,0.217-1.401,0.502-2.05,0.849L6.464,4.005C5.554,4.73,4.73,5.554,4.005,6.464l1.994,4.192c-0.347,0.648-0.632,1.334-0.849,2.05l-4.378,1.557C0.708,14.834,0.667,15.412,0.667,16s0.041,1.165,0.105,1.736l4.378,1.558c0.217,0.715,0.502,1.401,0.849,2.049l-1.994,4.193c0.725,0.909,1.549,1.733,2.459,2.458l4.192-1.993c0.648,0.347,1.334,0.633,2.05,0.851l1.557,4.377c0.571,0.064,1.148,0.104,1.737,0.104c0.588,0,1.165-0.04,1.736-0.104l1.558-4.377c0.715-0.218,1.399-0.504,2.049-0.851l4.193,1.993c0.909-0.725,1.733-1.549,2.458-2.458l-1.993-4.193c0.347-0.647,0.633-1.334,0.851-2.049L31.229,17.736zM16,20.871c-2.69,0-4.872-2.182-4.872-4.871c0-2.69,2.182-4.872,4.872-4.872c2.689,0,4.871,2.182,4.871,4.872C20.871,18.689,18.689,20.871,16,20.871z"></path><title>Link options.</title></g></g></g></g><!--z-index:57--><g   id="j_24" ><path  stroke="#444444" d="M 983 879 L 1073 996 C 1077 1001.3333333333333 1082 1005.6666666666665 1088 1009 L 1459 1199" id="v-281" stroke-width="2" stroke-dasharray="8 8" fill="none" style="opacity: 1;"></path><path  fill="black" stroke="black" d="M 0 0 0 0" transform="matrix(0.6096954574079302,0.7926357607477313,-0.7926357607477313,0.6096954574079302,982.8499755859375,879)"></path><path  fill="#444444" stroke="#444444" d="M 20 0 L 0 10 L 20 20 z" id="v-283" transform="matrix(-0.8899713277685006,-0.4560164862699287,0.4560164862699287,-0.8899713277685006,1454.4398902118612,1207.609658413822)" style="opacity: 1;"></path><path  d="M 983 879 L 1073 996 C 1077 1001.3333333333333 1082 1005.6666666666665 1088 1009 L 1459 1199" id="v-282" fill="none" style="cursor: default;"></path><g ><g id="v-275"  label-idx="0" cursor="move" transform="matrix(1,0,0,1,1198.9090576171875,1065.7998046875)" style="cursor: default; opacity: 1;"><rect joint-selector="rect" id="v-278" fill="#ffffff" rx="3" ry="3" pointer-events="none" width="118.66937255859375" height="64.74184036254883" transform="matrix(1,0,0,1,-57.8,-32.4)"></rect><text joint-selector="text" id="v-277" font-size="24px" xml:space="preserve" y="0.8em" fill="#444444" text-anchor="middle" pointer-events="none" font-family="Open Sans, Tahoma, Arial" font-weight="normal" transform="matrix(1,0,0,1,0,-22.8)"><tspan dy="0" >Вызывает</tspan><tspan dy="1.2em" x="0" >поездки</tspan></text></g><g id="v-276"  label-idx="1" cursor="move" transform="matrix(1,0,0,1,1188.9090576171875,1092.1998291015625)" style="cursor: default; opacity: 1;"><rect joint-selector="rect" id="v-280" fill="#ffffff" rx="3" ry="3"  width="0" height="0" transform="matrix(1,0,0,1,0,0)" display="none"></rect><text joint-selector="text" id="v-279" fill="#000000" font-size="14" text-anchor="middle" pointer-events="none"></text></g></g><g  display="none"><g  transform="translate(1079, 1004)" id="v-903"><circle  idx="0" r="10"></circle><path  idx="0" d="M16,5.333c-7.732,0-14,4.701-14,10.5c0,1.982,0.741,3.833,2.016,5.414L2,25.667l5.613-1.441c2.339,1.317,5.237,2.107,8.387,2.107c7.732,0,14-4.701,14-10.5C30,10.034,23.732,5.333,16,5.333z" transform="translate(5, -33)"></path><path  idx="0" transform="scale(.8) translate(9.5, -37)" d="M24.778,21.419 19.276,15.917 24.777,10.415 21.949,7.585 16.447,13.087 10.945,7.585 8.117,10.415 13.618,15.917 8.116,21.419 10.946,24.248 16.447,18.746 21.948,24.248z"><title>Remove vertex.</title></path></g></g><g  id="v-285" display="none"><g  id="v-273"><path  end="source" d="M 26 0 L 0 13 L 26 26 z"></path></g><g  id="v-274"><path  end="target" d="M 26 0 L 0 13 L 26 26 z"></path></g></g><g  id="v-284" display="none"><g  id="v-272" transform="translate(1007.3884304339878, 910.704959564184) "><g  event="remove"><circle r="11"></circle><path transform="scale(.8) translate(-16, -16)" d="M24.778,21.419 19.276,15.917 24.777,10.415 21.949,7.585 16.447,13.087 10.945,7.585 8.117,10.415 13.618,15.917 8.116,21.419 10.946,24.248 16.447,18.746 21.948,24.248z"></path><title>Remove link.</title></g><g  event="link:options"><circle r="11" transform="translate(25)"></circle><path fill="white" transform="scale(.55) translate(29, -16)" d="M31.229,17.736c0.064-0.571,0.104-1.148,0.104-1.736s-0.04-1.166-0.104-1.737l-4.377-1.557c-0.218-0.716-0.504-1.401-0.851-2.05l1.993-4.192c-0.725-0.91-1.549-1.734-2.458-2.459l-4.193,1.994c-0.647-0.347-1.334-0.632-2.049-0.849l-1.558-4.378C17.165,0.708,16.588,0.667,16,0.667s-1.166,0.041-1.737,0.105L12.707,5.15c-0.716,0.217-1.401,0.502-2.05,0.849L6.464,4.005C5.554,4.73,4.73,5.554,4.005,6.464l1.994,4.192c-0.347,0.648-0.632,1.334-0.849,2.05l-4.378,1.557C0.708,14.834,0.667,15.412,0.667,16s0.041,1.165,0.105,1.736l4.378,1.558c0.217,0.715,0.502,1.401,0.849,2.049l-1.994,4.193c0.725,0.909,1.549,1.733,2.459,2.458l4.192-1.993c0.648,0.347,1.334,0.633,2.05,0.851l1.557,4.377c0.571,0.064,1.148,0.104,1.737,0.104c0.588,0,1.165-0.04,1.736-0.104l1.558-4.377c0.715-0.218,1.399-0.504,2.049-0.851l4.193,1.993c0.909-0.725,1.733-1.549,2.458-2.458l-1.993-4.193c0.347-0.647,0.633-1.334,0.851-2.049L31.229,17.736zM16,20.871c-2.69,0-4.872-2.182-4.872-4.871c0-2.69,2.182-4.872,4.872-4.872c2.689,0,4.871,2.182,4.871,4.872C20.871,18.689,18.689,20.871,16,20.871z"></path><title>Link options.</title></g></g></g></g><!--z-index:58--><g   id="j_25" ><path  stroke="#444444" d="M 699 1242 L 950 1345 C 955.9999999999999 1347.6666666666665 962.3333333333333 1349 969 1349 L 1459 1325" id="v-298" stroke-width="2" stroke-dasharray="8 8" fill="none" style="opacity: 1;"></path><path  fill="black" stroke="black" d="M 0 0 0 0" transform="matrix(0.9242630566961098,0.38175620758117856,-0.38175620758117856,0.9242630566961098,699,1241.6099853515625)"></path><path  fill="#444444" stroke="#444444" d="M 20 0 L 0 10 L 20 20 z" id="v-300" transform="matrix(-0.9988365499731985,0.04822391976642151,-0.04822391976642151,-0.9988365499731985,1459.4822013770843,1334.8484114583177)" style="opacity: 1;"></path><path  d="M 699 1242 L 950 1345 C 955.9999999999999 1347.6666666666665 962.3333333333333 1349 969 1349 L 1459 1325" id="v-299" fill="none" style="cursor: default;"></path><g ><g id="v-292"  label-idx="0" cursor="move" transform="matrix(1,0,0,1,1068.73876953125,1344.1148681640625)" style="cursor: default; opacity: 1;"><rect joint-selector="rect" id="v-295" fill="#ffffff" rx="3" ry="3" pointer-events="none" width="164.8727569580078" height="64.74184036254883" transform="matrix(1,0,0,1,-84.5,-32.4)"></rect><text joint-selector="text" id="v-294" font-size="24px" xml:space="preserve" y="0.8em" fill="#444444" text-anchor="middle" pointer-events="none" font-family="Open Sans, Tahoma, Arial" font-weight="normal" transform="matrix(1,0,0,1,0,-22.8)"><tspan dy="0" >Обслуживает</tspan><tspan dy="1.2em" x="0" >поездки</tspan></text></g><g id="v-293"  label-idx="1" cursor="move" transform="matrix(1,0,0,1,1058.73876953125,1370.514892578125)" style="cursor: default; opacity: 1;"><rect joint-selector="rect" id="v-297" fill="#ffffff" rx="3" ry="3"  width="0" height="0" transform="matrix(1,0,0,1,0,0)" display="none"></rect><text joint-selector="text" id="v-296" fill="#000000" font-size="14" text-anchor="middle" pointer-events="none"></text></g></g><g  display="none"><g  transform="translate(959, 1349)" id="v-904"><circle  idx="0" r="10"></circle><path  idx="0" d="M16,5.333c-7.732,0-14,4.701-14,10.5c0,1.982,0.741,3.833,2.016,5.414L2,25.667l5.613-1.441c2.339,1.317,5.237,2.107,8.387,2.107c7.732,0,14-4.701,14-10.5C30,10.034,23.732,5.333,16,5.333z" transform="translate(5, -33)"></path><path  idx="0" transform="scale(.8) translate(9.5, -37)" d="M24.778,21.419 19.276,15.917 24.777,10.415 21.949,7.585 16.447,13.087 10.945,7.585 8.117,10.415 13.618,15.917 8.116,21.419 10.946,24.248 16.447,18.746 21.948,24.248z"><title>Remove vertex.</title></path></g></g><g  id="v-302" display="none"><g  id="v-290"><path  end="source" d="M 26 0 L 0 13 L 26 26 z"></path></g><g  id="v-291"><path  end="target" d="M 26 0 L 0 13 L 26 26 z"></path></g></g><g  id="v-301" display="none"><g  id="v-289" transform="translate(736.0054171252982, 1257.1854898960387) "><g  event="remove"><circle r="11"></circle><path transform="scale(.8) translate(-16, -16)" d="M24.778,21.419 19.276,15.917 24.777,10.415 21.949,7.585 16.447,13.087 10.945,7.585 8.117,10.415 13.618,15.917 8.116,21.419 10.946,24.248 16.447,18.746 21.948,24.248z"></path><title>Remove link.</title></g><g  event="link:options"><circle r="11" transform="translate(25)"></circle><path fill="white" transform="scale(.55) translate(29, -16)" d="M31.229,17.736c0.064-0.571,0.104-1.148,0.104-1.736s-0.04-1.166-0.104-1.737l-4.377-1.557c-0.218-0.716-0.504-1.401-0.851-2.05l1.993-4.192c-0.725-0.91-1.549-1.734-2.458-2.459l-4.193,1.994c-0.647-0.347-1.334-0.632-2.049-0.849l-1.558-4.378C17.165,0.708,16.588,0.667,16,0.667s-1.166,0.041-1.737,0.105L12.707,5.15c-0.716,0.217-1.401,0.502-2.05,0.849L6.464,4.005C5.554,4.73,4.73,5.554,4.005,6.464l1.994,4.192c-0.347,0.648-0.632,1.334-0.849,2.05l-4.378,1.557C0.708,14.834,0.667,15.412,0.667,16s0.041,1.165,0.105,1.736l4.378,1.558c0.217,0.715,0.502,1.401,0.849,2.049l-1.994,4.193c0.725,0.909,1.549,1.733,2.459,2.458l4.192-1.993c0.648,0.347,1.334,0.633,2.05,0.851l1.557,4.377c0.571,0.064,1.148,0.104,1.737,0.104c0.588,0,1.165-0.04,1.736-0.104l1.558-4.377c0.715-0.218,1.399-0.504,2.049-0.851l4.193,1.993c0.909-0.725,1.733-1.549,2.458-2.458l-1.993-4.193c0.347-0.647,0.633-1.334,0.851-2.049L31.229,17.736zM16,20.871c-2.69,0-4.872-2.182-4.872-4.871c0-2.69,2.182-4.872,4.872-4.872c2.689,0,4.871,2.182,4.871,4.872C20.871,18.689,18.689,20.871,16,20.871z"></path><title>Link options.</title></g></g></g></g><!--z-index:59--><g   id="j_26" ><path  stroke="#444444" d="M 1811 1464 L 2183 1901 C 2187 1906.333333333333 2191.6666666666665 1910.9999999999998 2197 1915 L 2388 2079" id="v-315" stroke-width="2" stroke-dasharray="8 8" fill="none" style="opacity: 1;"></path><path  fill="black" stroke="black" d="M 0 0 0 0" transform="matrix(0.6470912368789584,0.7624125727940613,-0.7624125727940613,0.6470912368789584,1811.31005859375,1464)"></path><path  fill="#444444" stroke="#444444" d="M 20 0 L 0 10 L 20 20 z" id="v-317" transform="matrix(-0.7606886806162071,-0.6491168856087277,0.6491168856087277,-0.7606886806162071,2381.72875505945,2086.60684472475)" style="opacity: 1;"></path><path  d="M 1811 1464 L 2183 1901 C 2187 1906.333333333333 2191.6666666666665 1910.9999999999998 2197 1915 L 2388 2079" id="v-316" fill="none" style="cursor: default;"></path><g ><g id="v-309"  label-idx="0" cursor="move" transform="matrix(1,0,0,1,2085.029296875,1785.910888671875)" style="cursor: default; opacity: 1;"><rect joint-selector="rect" id="v-312" fill="#ffffff" rx="3" ry="3" pointer-events="none" width="160.3607177734375" height="64.74184036254883" transform="matrix(1,0,0,1,-78.7,-32.4)"></rect><text joint-selector="text" id="v-311" font-size="24px" xml:space="preserve" y="0.8em" fill="#444444" text-anchor="middle" pointer-events="none" font-family="Open Sans, Tahoma, Arial" font-weight="normal" transform="matrix(1,0,0,1,0,-22.8)"><tspan dy="0" >Интеграция с</tspan><tspan dy="1.2em" x="0" >платежами</tspan></text></g><g id="v-310"  label-idx="1" cursor="move" transform="matrix(1,0,0,1,2075.029296875,1812.3109130859375)" style="cursor: default; opacity: 1;"><rect joint-selector="rect" id="v-314" fill="#ffffff" rx="3" ry="3"  width="0" height="0" transform="matrix(1,0,0,1,0,0)" display="none"></rect><text joint-selector="text" id="v-313" fill="#000000" font-size="14" text-anchor="middle" pointer-events="none"></text></g></g><g  display="none"><g  transform="translate(2189, 1909)" id="v-905"><circle  idx="0" r="10"></circle><path  idx="0" d="M16,5.333c-7.732,0-14,4.701-14,10.5c0,1.982,0.741,3.833,2.016,5.414L2,25.667l5.613-1.441c2.339,1.317,5.237,2.107,8.387,2.107c7.732,0,14-4.701,14-10.5C30,10.034,23.732,5.333,16,5.333z" transform="translate(5, -33)"></path><path  idx="0" transform="scale(.8) translate(9.5, -37)" d="M24.778,21.419 19.276,15.917 24.777,10.415 21.949,7.585 16.447,13.087 10.945,7.585 8.117,10.415 13.618,15.917 8.116,21.419 10.946,24.248 16.447,18.746 21.948,24.248z"><title>Remove vertex.</title></path></g></g><g  id="v-319" display="none"><g  id="v-307"><path  end="source" d="M 26 0 L 0 13 L 26 26 z"></path></g><g  id="v-308"><path  end="target" d="M 26 0 L 0 13 L 26 26 z"></path></g></g><g  id="v-318" display="none"><g  id="v-306" transform="translate(1836.9281851553294, 1494.4586476152663) "><g  event="remove"><circle r="11"></circle><path transform="scale(.8) translate(-16, -16)" d="M24.778,21.419 19.276,15.917 24.777,10.415 21.949,7.585 16.447,13.087 10.945,7.585 8.117,10.415 13.618,15.917 8.116,21.419 10.946,24.248 16.447,18.746 21.948,24.248z"></path><title>Remove link.</title></g><g  event="link:options"><circle r="11" transform="translate(25)"></circle><path fill="white" transform="scale(.55) translate(29, -16)" d="M31.229,17.736c0.064-0.571,0.104-1.148,0.104-1.736s-0.04-1.166-0.104-1.737l-4.377-1.557c-0.218-0.716-0.504-1.401-0.851-2.05l1.993-4.192c-0.725-0.91-1.549-1.734-2.458-2.459l-4.193,1.994c-0.647-0.347-1.334-0.632-2.049-0.849l-1.558-4.378C17.165,0.708,16.588,0.667,16,0.667s-1.166,0.041-1.737,0.105L12.707,5.15c-0.716,0.217-1.401,0.502-2.05,0.849L6.464,4.005C5.554,4.73,4.73,5.554,4.005,6.464l1.994,4.192c-0.347,0.648-0.632,1.334-0.849,2.05l-4.378,1.557C0.708,14.834,0.667,15.412,0.667,16s0.041,1.165,0.105,1.736l4.378,1.558c0.217,0.715,0.502,1.401,0.849,2.049l-1.994,4.193c0.725,0.909,1.549,1.733,2.459,2.458l4.192-1.993c0.648,0.347,1.334,0.633,2.05,0.851l1.557,4.377c0.571,0.064,1.148,0.104,1.737,0.104c0.588,0,1.165-0.04,1.736-0.104l1.558-4.377c0.715-0.218,1.399-0.504,2.049-0.851l4.193,1.993c0.909-0.725,1.733-1.549,2.458-2.458l-1.993-4.193c0.347-0.647,0.633-1.334,0.851-2.049L31.229,17.736zM16,20.871c-2.69,0-4.872-2.182-4.872-4.871c0-2.69,2.182-4.872,4.872-4.872c2.689,0,4.871,2.182,4.871,4.872C20.871,18.689,18.689,20.871,16,20.871z"></path><title>Link options.</title></g></g></g></g><!--z-index:60--><g   id="j_27" ><path  stroke="#444444" d="M 1719 1464 L 1887 2189 C 1888.3333333333333 2195.6666666666665 1890.3333333333333 2202 1893 2208 L 1925 2289" id="v-332" stroke-width="2" stroke-dasharray="8 8" fill="none" style="opacity: 1;"></path><path  fill="black" stroke="black" d="M 0 0 0 0" transform="matrix(0.22565810650672846,0.9742065586762378,-0.9742065586762378,0.22565810650672846,1718.75,1464)"></path><path  fill="#444444" stroke="#444444" d="M 20 0 L 0 10 L 20 20 z" id="v-334" transform="matrix(-0.3680932044853266,-0.9297888969071009,0.9297888969071009,-0.3680932044853266,1915.3321397554698,2292.6809694514245)" style="opacity: 1;"></path><path  d="M 1719 1464 L 1887 2189 C 1888.3333333333333 2195.6666666666665 1890.3333333333333 2202 1893 2208 L 1925 2289" id="v-333" fill="none" style="cursor: default;"></path><g ><g id="v-326"  label-idx="0" cursor="move" transform="matrix(1,0,0,1,1815.0833740234375,1878.645751953125)" style="cursor: default; opacity: 1;"><rect joint-selector="rect" id="v-329" fill="#ffffff" rx="3" ry="3" pointer-events="none" width="165.34024047851562" height="64.74184036254883" transform="matrix(1,0,0,1,-85.4,-32.4)"></rect><text joint-selector="text" id="v-328" font-size="24px" xml:space="preserve" y="0.8em" fill="#444444" text-anchor="middle" pointer-events="none" font-family="Open Sans, Tahoma, Arial" font-weight="normal" transform="matrix(1,0,0,1,0,-22.8)"><tspan dy="0" >Использует</tspan><tspan dy="1.2em" x="0" >картографию</tspan></text></g><g id="v-327"  label-idx="1" cursor="move" transform="matrix(1,0,0,1,1805.0833740234375,1905.0457763671875)" style="cursor: default; opacity: 1;"><rect joint-selector="rect" id="v-331" fill="#ffffff" rx="3" ry="3"  width="0" height="0" transform="matrix(1,0,0,1,0,0)" display="none"></rect><text joint-selector="text" id="v-330" fill="#000000" font-size="14" text-anchor="middle" pointer-events="none"></text></g></g><g  display="none"><g  transform="translate(1889, 2199)" id="v-906"><circle  idx="0" r="10"></circle><path  idx="0" d="M16,5.333c-7.732,0-14,4.701-14,10.5c0,1.982,0.741,3.833,2.016,5.414L2,25.667l5.613-1.441c2.339,1.317,5.237,2.107,8.387,2.107c7.732,0,14-4.701,14-10.5C30,10.034,23.732,5.333,16,5.333z" transform="translate(5, -33)"></path><path  idx="0" transform="scale(.8) translate(9.5, -37)" d="M24.778,21.419 19.276,15.917 24.777,10.415 21.949,7.585 16.447,13.087 10.945,7.585 8.117,10.415 13.618,15.917 8.116,21.419 10.946,24.248 16.447,18.746 21.948,24.248z"><title>Remove vertex.</title></path></g></g><g  id="v-336" display="none"><g  id="v-324"><path  end="source" d="M 26 0 L 0 13 L 26 26 z"></path></g><g  id="v-325"><path  end="target" d="M 26 0 L 0 13 L 26 26 z"></path></g></g><g  id="v-335" display="none"><g  id="v-323" transform="translate(1728.0297054767975, 1502.9674789921326) "><g  event="remove"><circle r="11"></circle><path transform="scale(.8) translate(-16, -16)" d="M24.778,21.419 19.276,15.917 24.777,10.415 21.949,7.585 16.447,13.087 10.945,7.585 8.117,10.415 13.618,15.917 8.116,21.419 10.946,24.248 16.447,18.746 21.948,24.248z"></path><title>Remove link.</title></g><g  event="link:options"><circle r="11" transform="translate(25)"></circle><path fill="white" transform="scale(.55) translate(29, -16)" d="M31.229,17.736c0.064-0.571,0.104-1.148,0.104-1.736s-0.04-1.166-0.104-1.737l-4.377-1.557c-0.218-0.716-0.504-1.401-0.851-2.05l1.993-4.192c-0.725-0.91-1.549-1.734-2.458-2.459l-4.193,1.994c-0.647-0.347-1.334-0.632-2.049-0.849l-1.558-4.378C17.165,0.708,16.588,0.667,16,0.667s-1.166,0.041-1.737,0.105L12.707,5.15c-0.716,0.217-1.401,0.502-2.05,0.849L6.464,4.005C5.554,4.73,4.73,5.554,4.005,6.464l1.994,4.192c-0.347,0.648-0.632,1.334-0.849,2.05l-4.378,1.557C0.708,14.834,0.667,15.412,0.667,16s0.041,1.165,0.105,1.736l4.378,1.558c0.217,0.715,0.502,1.401,0.849,2.049l-1.994,4.193c0.725,0.909,1.549,1.733,2.459,2.458l4.192-1.993c0.648,0.347,1.334,0.633,2.05,0.851l1.557,4.377c0.571,0.064,1.148,0.104,1.737,0.104c0.588,0,1.165-0.04,1.736-0.104l1.558-4.377c0.715-0.218,1.399-0.504,2.049-0.851l4.193,1.993c0.909-0.725,1.733-1.549,2.458-2.458l-1.993-4.193c0.347-0.647,0.633-1.334,0.851-2.049L31.229,17.736zM16,20.871c-2.69,0-4.872-2.182-4.872-4.871c0-2.69,2.182-4.872,4.872-4.872c2.689,0,4.871,2.182,4.871,4.872C20.871,18.689,18.689,20.871,16,20.871z"></path><title>Link options.</title></g></g></g></g><!--z-index:61--><g   id="j_28" ><path  stroke="#444444" d="M 1767 1464 L 1994 1875 C 1997.333333333333 1881 1998.9999999999998 1887.3333333333333 1999 1894 L 1988 2289" id="v-346" stroke-width="2" stroke-dasharray="8 8" fill="none" style="opacity: 1;"></path><path  fill="black" stroke="black" d="M 0 0 0 0" transform="matrix(0.4836936886328615,0.8752373481386272,-0.8752373481386272,0.4836936886328615,1766.8900146484375,1464)"></path><path  fill="#444444" stroke="#444444" d="M 20 0 L 0 10 L 20 20 z" id="v-348" transform="matrix(0.027027260903368808,-0.9996346968608388,0.9996346968608388,0.027027260903368808,1978.0536929223579,2288.7297364689503)" style="opacity: 1;"></path><path  d="M 1767 1464 L 1994 1875 C 1997.333333333333 1881 1998.9999999999998 1887.3333333333333 1999 1894 L 1988 2289" id="v-347" fill="none" style="cursor: default;"></path><g ><g id="v-340"  label-idx="0" cursor="move" transform="matrix(1,0,0,1,1980.82373046875,1851.1435546875)" style="cursor: default; opacity: 1;"><rect joint-selector="rect" id="v-343" fill="#ffffff" rx="3" ry="3" pointer-events="none" width="72.79362487792969" height="35.941837310791016" transform="matrix(1,0,0,1,-35.8,-18)"></rect><text joint-selector="text" id="v-342" font-size="24px" xml:space="preserve" y="0.8em" fill="#444444" text-anchor="middle" pointer-events="none" font-family="Open Sans, Tahoma, Arial" font-weight="normal" transform="matrix(1,0,0,1,0,-8.4)"><tspan dy="0" >HTTPS</tspan></text></g><g id="v-341"  label-idx="1" cursor="move" transform="matrix(1,0,0,1,1970.82373046875,1863.1435546875)" style="cursor: default; opacity: 1;"><rect joint-selector="rect" id="v-345" fill="#ffffff" rx="3" ry="3"  width="0" height="0" transform="matrix(1,0,0,1,0,0)" display="none"></rect><text joint-selector="text" id="v-344" fill="#000000" font-size="14" text-anchor="middle" pointer-events="none"></text></g></g><g  display="none"><g  transform="translate(1999, 1884)" id="v-907"><circle  idx="0" r="10"></circle><path  idx="0" d="M16,5.333c-7.732,0-14,4.701-14,10.5c0,1.982,0.741,3.833,2.016,5.414L2,25.667l5.613-1.441c2.339,1.317,5.237,2.107,8.387,2.107c7.732,0,14-4.701,14-10.5C30,10.034,23.732,5.333,16,5.333z" transform="translate(5, -33)"></path><path  idx="0" transform="scale(.8) translate(9.5, -37)" d="M24.778,21.419 19.276,15.917 24.777,10.415 21.949,7.585 16.447,13.087 10.945,7.585 8.117,10.415 13.618,15.917 8.116,21.419 10.946,24.248 16.447,18.746 21.948,24.248z"><title>Remove vertex.</title></path></g></g><g  id="v-350" display="none"><g  id="v-338"><path  end="source" d="M 26 0 L 0 13 L 26 26 z"></path></g><g  id="v-339"><path  end="target" d="M 26 0 L 0 13 L 26 26 z"></path></g></g><g  id="v-349" display="none"><g  id="v-337" transform="translate(1786.3388567724567, 1499.01440587436) "><g  event="remove"><circle r="11"></circle><path transform="scale(.8) translate(-16, -16)" d="M24.778,21.419 19.276,15.917 24.777,10.415 21.949,7.585 16.447,13.087 10.945,7.585 8.117,10.415 13.618,15.917 8.116,21.419 10.946,24.248 16.447,18.746 21.948,24.248z"></path><title>Remove link.</title></g><g  event="link:options"><circle r="11" transform="translate(25)"></circle><path fill="white" transform="scale(.55) translate(29, -16)" d="M31.229,17.736c0.064-0.571,0.104-1.148,0.104-1.736s-0.04-1.166-0.104-1.737l-4.377-1.557c-0.218-0.716-0.504-1.401-0.851-2.05l1.993-4.192c-0.725-0.91-1.549-1.734-2.458-2.459l-4.193,1.994c-0.647-0.347-1.334-0.632-2.049-0.849l-1.558-4.378C17.165,0.708,16.588,0.667,16,0.667s-1.166,0.041-1.737,0.105L12.707,5.15c-0.716,0.217-1.401,0.502-2.05,0.849L6.464,4.005C5.554,4.73,4.73,5.554,4.005,6.464l1.994,4.192c-0.347,0.648-0.632,1.334-0.849,2.05l-4.378,1.557C0.708,14.834,0.667,15.412,0.667,16s0.041,1.165,0.105,1.736l4.378,1.558c0.217,0.715,0.502,1.401,0.849,2.049l-1.994,4.193c0.725,0.909,1.549,1.733,2.459,2.458l4.192-1.993c0.648,0.347,1.334,0.633,2.05,0.851l1.557,4.377c0.571,0.064,1.148,0.104,1.737,0.104c0.588,0,1.165-0.04,1.736-0.104l1.558-4.377c0.715-0.218,1.399-0.504,2.049-0.851l4.193,1.993c0.909-0.725,1.733-1.549,2.458-2.458l-1.993-4.193c0.347-0.647,0.633-1.334,0.851-2.049L31.229,17.736zM16,20.871c-2.69,0-4.872-2.182-4.872-4.871c0-2.69,2.182-4.872,4.872-4.872c2.689,0,4.871,2.182,4.871,4.872C20.871,18.689,18.689,20.871,16,20.871z"></path><title>Link options.</title></g></g></g></g><!--z-index:62--><g   id="j_29" ><path  stroke="#444444" d="M 1029 736 L 1399 841 C 1405.6666666666665 843 1410.6666666666665 847 1414 853 L 1596 1164" id="v-360" stroke-width="2" stroke-dasharray="8 8" fill="none" style="opacity: 1;"></path><path  fill="black" stroke="black" d="M 0 0 0 0" transform="matrix(0.9618385152269293,0.2736177454516721,-0.2736177454516721,0.9618385152269293,1029,735.9000244140625)"></path><path  fill="#444444" stroke="#444444" d="M 20 0 L 0 10 L 20 20 z" id="v-362" transform="matrix(-0.5050042505026124,-0.863116855920619,0.863116855920619,-0.5050042505026124,1587.5988055864452,1169.0499854782952)" style="opacity: 1;"></path><path  d="M 1029 736 L 1399 841 C 1405.6666666666665 843 1410.6666666666665 847 1414 853 L 1596 1164" id="v-361" fill="none" style="cursor: default;"></path><g ><g id="v-354"  label-idx="0" cursor="move" transform="matrix(1,0,0,1,1396.8133544921875,840.3794555664062)" style="cursor: default; opacity: 1;"><rect joint-selector="rect" id="v-357" fill="#ffffff" rx="3" ry="3" pointer-events="none" width="138.09506225585938" height="35.941837310791016" transform="matrix(1,0,0,1,-67.5,-18)"></rect><text joint-selector="text" id="v-356" font-size="24px" xml:space="preserve" y="0.8em" fill="#444444" text-anchor="middle" pointer-events="none" font-family="Open Sans, Tahoma, Arial" font-weight="normal" transform="matrix(1,0,0,1,0,-8.4)"><tspan dy="0" >Использует</tspan></text></g><g id="v-355"  label-idx="1" cursor="move" transform="matrix(1,0,0,1,1386.8133544921875,852.3794555664062)" style="cursor: default; opacity: 1;"><rect joint-selector="rect" id="v-359" fill="#ffffff" rx="3" ry="3"  width="0" height="0" transform="matrix(1,0,0,1,0,0)" display="none"></rect><text joint-selector="text" id="v-358" fill="#000000" font-size="14" text-anchor="middle" pointer-events="none"></text></g></g><g  display="none"><g  transform="translate(1409, 844)" id="v-908"><circle  idx="0" r="10"></circle><path  idx="0" d="M16,5.333c-7.732,0-14,4.701-14,10.5c0,1.982,0.741,3.833,2.016,5.414L2,25.667l5.613-1.441c2.339,1.317,5.237,2.107,8.387,2.107c7.732,0,14-4.701,14-10.5C30,10.034,23.732,5.333,16,5.333z" transform="translate(5, -33)"></path><path  idx="0" transform="scale(.8) translate(9.5, -37)" d="M24.778,21.419 19.276,15.917 24.777,10.415 21.949,7.585 16.447,13.087 10.945,7.585 8.117,10.415 13.618,15.917 8.116,21.419 10.946,24.248 16.447,18.746 21.948,24.248z"><title>Remove vertex.</title></path></g></g><g  id="v-364" display="none"><g  id="v-352"><path  end="source" d="M 26 0 L 0 13 L 26 26 z"></path></g><g  id="v-353"><path  end="target" d="M 26 0 L 0 13 L 26 26 z"></path></g></g><g  id="v-363" display="none"><g  id="v-351" transform="translate(1067.4805194905198, 746.9201474229853) "><g  event="remove"><circle r="11"></circle><path transform="scale(.8) translate(-16, -16)" d="M24.778,21.419 19.276,15.917 24.777,10.415 21.949,7.585 16.447,13.087 10.945,7.585 8.117,10.415 13.618,15.917 8.116,21.419 10.946,24.248 16.447,18.746 21.948,24.248z"></path><title>Remove link.</title></g><g  event="link:options"><circle r="11" transform="translate(25)"></circle><path fill="white" transform="scale(.55) translate(29, -16)" d="M31.229,17.736c0.064-0.571,0.104-1.148,0.104-1.736s-0.04-1.166-0.104-1.737l-4.377-1.557c-0.218-0.716-0.504-1.401-0.851-2.05l1.993-4.192c-0.725-0.91-1.549-1.734-2.458-2.459l-4.193,1.994c-0.647-0.347-1.334-0.632-2.049-0.849l-1.558-4.378C17.165,0.708,16.588,0.667,16,0.667s-1.166,0.041-1.737,0.105L12.707,5.15c-0.716,0.217-1.401,0.502-2.05,0.849L6.464,4.005C5.554,4.73,4.73,5.554,4.005,6.464l1.994,4.192c-0.347,0.648-0.632,1.334-0.849,2.05l-4.378,1.557C0.708,14.834,0.667,15.412,0.667,16s0.041,1.165,0.105,1.736l4.378,1.558c0.217,0.715,0.502,1.401,0.849,2.049l-1.994,4.193c0.725,0.909,1.549,1.733,2.459,2.458l4.192-1.993c0.648,0.347,1.334,0.633,2.05,0.851l1.557,4.377c0.571,0.064,1.148,0.104,1.737,0.104c0.588,0,1.165-0.04,1.736-0.104l1.558-4.377c0.715-0.218,1.399-0.504,2.049-0.851l4.193,1.993c0.909-0.725,1.733-1.549,2.458-2.458l-1.993-4.193c0.347-0.647,0.633-1.334,0.851-2.049L31.229,17.736zM16,20.871c-2.69,0-4.872-2.182-4.872-4.871c0-2.69,2.182-4.872,4.872-4.872c2.689,0,4.871,2.182,4.871,4.872C20.871,18.689,18.689,20.871,16,20.871z"></path><title>Link options.</title></g></g></g></g><!--z-index:63--><g   id="j_30" ><path  stroke="#444444" d="M 699 1143 L 924 1125 C 930.6666666666666 1124.3333333333333 937.3333333333333 1124.6666666666665 944 1126 L 1459 1257" id="v-374" stroke-width="2" stroke-dasharray="8 8" fill="none" style="opacity: 1;"></path><path  fill="black" stroke="black" d="M 0 0 0 0" transform="matrix(0.9967781009685494,-0.0802085870062079,0.0802085870062079,0.9967781009685494,699,1142.9100341796875)"></path><path  fill="#444444" stroke="#444444" d="M 20 0 L 0 10 L 20 20 z" id="v-376" transform="matrix(-0.9693774487121798,-0.245575572743433,0.245575572743433,-0.9693774487121798,1456.5442931737505,1266.6937196676813)" style="opacity: 1;"></path><path  d="M 699 1143 L 924 1125 C 930.6666666666666 1124.3333333333333 937.3333333333333 1124.6666666666665 944 1126 L 1459 1257" id="v-375" fill="none" style="cursor: default;"></path><g ><g id="v-368"  label-idx="0" cursor="move" transform="matrix(1,0,0,1,1082.3863525390625,1161.201171875)" style="cursor: default; opacity: 1;"><rect joint-selector="rect" id="v-371" fill="#ffffff" rx="3" ry="3" pointer-events="none" width="138.09506225585938" height="35.941837310791016" transform="matrix(1,0,0,1,-67.5,-18)"></rect><text joint-selector="text" id="v-370" font-size="24px" xml:space="preserve" y="0.8em" fill="#444444" text-anchor="middle" pointer-events="none" font-family="Open Sans, Tahoma, Arial" font-weight="normal" transform="matrix(1,0,0,1,0,-8.4)"><tspan dy="0" >Использует</tspan></text></g><g id="v-369"  label-idx="1" cursor="move" transform="matrix(1,0,0,1,1072.3863525390625,1173.201171875)" style="cursor: default; opacity: 1;"><rect joint-selector="rect" id="v-373" fill="#ffffff" rx="3" ry="3"  width="0" height="0" transform="matrix(1,0,0,1,0,0)" display="none"></rect><text joint-selector="text" id="v-372" fill="#000000" font-size="14" text-anchor="middle" pointer-events="none"></text></g></g><g  display="none"><g  transform="translate(934, 1124)" id="v-909"><circle  idx="0" r="10"></circle><path  idx="0" d="M16,5.333c-7.732,0-14,4.701-14,10.5c0,1.982,0.741,3.833,2.016,5.414L2,25.667l5.613-1.441c2.339,1.317,5.237,2.107,8.387,2.107c7.732,0,14-4.701,14-10.5C30,10.034,23.732,5.333,16,5.333z" transform="translate(5, -33)"></path><path  idx="0" transform="scale(.8) translate(9.5, -37)" d="M24.778,21.419 19.276,15.917 24.777,10.415 21.949,7.585 16.447,13.087 10.945,7.585 8.117,10.415 13.618,15.917 8.116,21.419 10.946,24.248 16.447,18.746 21.948,24.248z"><title>Remove vertex.</title></path></g></g><g  id="v-378" display="none"><g  id="v-366"><path  end="source" d="M 26 0 L 0 13 L 26 26 z"></path></g><g  id="v-367"><path  end="target" d="M 26 0 L 0 13 L 26 26 z"></path></g></g><g  id="v-377" display="none"><g  id="v-365" transform="translate(738.8726111414451, 1139.8101911086844) "><g  event="remove"><circle r="11"></circle><path transform="scale(.8) translate(-16, -16)" d="M24.778,21.419 19.276,15.917 24.777,10.415 21.949,7.585 16.447,13.087 10.945,7.585 8.117,10.415 13.618,15.917 8.116,21.419 10.946,24.248 16.447,18.746 21.948,24.248z"></path><title>Remove link.</title></g><g  event="link:options"><circle r="11" transform="translate(25)"></circle><path fill="white" transform="scale(.55) translate(29, -16)" d="M31.229,17.736c0.064-0.571,0.104-1.148,0.104-1.736s-0.04-1.166-0.104-1.737l-4.377-1.557c-0.218-0.716-0.504-1.401-0.851-2.05l1.993-4.192c-0.725-0.91-1.549-1.734-2.458-2.459l-4.193,1.994c-0.647-0.347-1.334-0.632-2.049-0.849l-1.558-4.378C17.165,0.708,16.588,0.667,16,0.667s-1.166,0.041-1.737,0.105L12.707,5.15c-0.716,0.217-1.401,0.502-2.05,0.849L6.464,4.005C5.554,4.73,4.73,5.554,4.005,6.464l1.994,4.192c-0.347,0.648-0.632,1.334-0.849,2.05l-4.378,1.557C0.708,14.834,0.667,15.412,0.667,16s0.041,1.165,0.105,1.736l4.378,1.558c0.217,0.715,0.502,1.401,0.849,2.049l-1.994,4.193c0.725,0.909,1.549,1.733,2.459,2.458l4.192-1.993c0.648,0.347,1.334,0.633,2.05,0.851l1.557,4.377c0.571,0.064,1.148,0.104,1.737,0.104c0.588,0,1.165-0.04,1.736-0.104l1.558-4.377c0.715-0.218,1.399-0.504,2.049-0.851l4.193,1.993c0.909-0.725,1.733-1.549,2.458-2.458l-1.993-4.193c0.347-0.647,0.633-1.334,0.851-2.049L31.229,17.736zM16,20.871c-2.69,0-4.872-2.182-4.872-4.871c0-2.69,2.182-4.872,4.872-4.872c2.689,0,4.871,2.182,4.871,4.872C20.871,18.689,18.689,20.871,16,20.871z"></path><title>Link options.</title></g></g></g></g><!--z-index:64--><g   id="j_31" ><path  stroke="#444444" d="M 599 1643 L 1459 1382" id="v-391" stroke-width="2" stroke-dasharray="8 8" fill="none" style="opacity: 1;"></path><path  fill="black" stroke="black" d="M 0 0 0 0" transform="matrix(0.9568995079192908,-0.2904192344591162,0.2904192344591162,0.9568995079192908,599,1643.300048828125)"></path><path  fill="#444444" stroke="#444444" d="M 20 0 L 0 10 L 20 20 z" id="v-393" transform="matrix(-0.9568995852625773,0.29041897962135244,-0.29041897962135244,-0.9568995852625773,1461.9042159222772,1391.8590199235996)" style="opacity: 1;"></path><path  d="M 599 1643 L 1459 1382" id="v-392" fill="none" style="cursor: default;"></path><g ><g id="v-385"  label-idx="0" cursor="move" transform="matrix(1,0,0,1,1029,1512.5)" style="cursor: default; opacity: 1;"><rect joint-selector="rect" id="v-388" fill="#ffffff" rx="3" ry="3" pointer-events="none" width="126.60119247436523" height="64.74184036254883" transform="matrix(1,0,0,1,-62.1,-32.4)"></rect><text joint-selector="text" id="v-387" font-size="24px" xml:space="preserve" y="0.8em" fill="#444444" text-anchor="middle" pointer-events="none" font-family="Open Sans, Tahoma, Arial" font-weight="normal" transform="matrix(1,0,0,1,0,-22.8)"><tspan dy="0" >Работает с</tspan><tspan dy="1.2em" x="0" >тикетами</tspan></text></g><g id="v-386"  label-idx="1" cursor="move" transform="matrix(1,0,0,1,1019,1538.9000244140625)" style="cursor: default; opacity: 1;"><rect joint-selector="rect" id="v-390" fill="#ffffff" rx="3" ry="3"  width="0" height="0" transform="matrix(1,0,0,1,0,0)" display="none"></rect><text joint-selector="text" id="v-389" fill="#000000" font-size="14" text-anchor="middle" pointer-events="none"></text></g></g><g  display="none"></g><g  id="v-395" display="none"><g  id="v-383"><path  end="source" d="M 26 0 L 0 13 L 26 26 z"></path></g><g  id="v-384"><path  end="target" d="M 26 0 L 0 13 L 26 26 z"></path></g></g><g  id="v-394" display="none"><g  id="v-382" transform="translate(637.2761065996536, 1631.383646718012) "><g  event="remove"><circle r="11"></circle><path transform="scale(.8) translate(-16, -16)" d="M24.778,21.419 19.276,15.917 24.777,10.415 21.949,7.585 16.447,13.087 10.945,7.585 8.117,10.415 13.618,15.917 8.116,21.419 10.946,24.248 16.447,18.746 21.948,24.248z"></path><title>Remove link.</title></g><g  event="link:options"><circle r="11" transform="translate(25)"></circle><path fill="white" transform="scale(.55) translate(29, -16)" d="M31.229,17.736c0.064-0.571,0.104-1.148,0.104-1.736s-0.04-1.166-0.104-1.737l-4.377-1.557c-0.218-0.716-0.504-1.401-0.851-2.05l1.993-4.192c-0.725-0.91-1.549-1.734-2.458-2.459l-4.193,1.994c-0.647-0.347-1.334-0.632-2.049-0.849l-1.558-4.378C17.165,0.708,16.588,0.667,16,0.667s-1.166,0.041-1.737,0.105L12.707,5.15c-0.716,0.217-1.401,0.502-2.05,0.849L6.464,4.005C5.554,4.73,4.73,5.554,4.005,6.464l1.994,4.192c-0.347,0.648-0.632,1.334-0.849,2.05l-4.378,1.557C0.708,14.834,0.667,15.412,0.667,16s0.041,1.165,0.105,1.736l4.378,1.558c0.217,0.715,0.502,1.401,0.849,2.049l-1.994,4.193c0.725,0.909,1.549,1.733,2.459,2.458l4.192-1.993c0.648,0.347,1.334,0.633,2.05,0.851l1.557,4.377c0.571,0.064,1.148,0.104,1.737,0.104c0.588,0,1.165-0.04,1.736-0.104l1.558-4.377c0.715-0.218,1.399-0.504,2.049-0.851l4.193,1.993c0.909-0.725,1.733-1.549,2.458-2.458l-1.993-4.193c0.347-0.647,0.633-1.334,0.851-2.049L31.229,17.736zM16,20.871c-2.69,0-4.872-2.182-4.872-4.871c0-2.69,2.182-4.872,4.872-4.872c2.689,0,4.871,2.182,4.871,4.872C20.871,18.689,18.689,20.871,16,20.871z"></path><title>Link options.</title></g></g></g></g><!--z-index:65--><g   id="j_32" ><path  stroke="#444444" d="M 974 1911 L 1506 1464" id="v-408" stroke-width="2" stroke-dasharray="8 8" fill="none" style="opacity: 1;"></path><path  fill="black" stroke="black" d="M 0 0 0 0" transform="matrix(0.7654555891265556,-0.6434887264551864,0.6434887264551864,0.7654555891265556,974,1910.8699951171875)"></path><path  fill="#444444" stroke="#444444" d="M 20 0 L 0 10 L 20 20 z" id="v-410" transform="matrix(-0.7654557604979422,0.6434885226020095,-0.6434885226020095,-0.7654557604979422,1512.0048481044373,1471.6546089023966)" style="opacity: 1;"></path><path  d="M 974 1911 L 1506 1464" id="v-409" fill="none" style="cursor: default;"></path><g ><g id="v-402"  label-idx="0" cursor="move" transform="matrix(1,0,0,1,1240,1687.5)" style="cursor: default; opacity: 1;"><rect joint-selector="rect" id="v-405" fill="#ffffff" rx="3" ry="3" pointer-events="none" width="180.04383850097656" height="64.74184036254883" transform="matrix(1,0,0,1,-92.1,-32.4)"></rect><text joint-selector="text" id="v-404" font-size="24px" xml:space="preserve" y="0.8em" fill="#444444" text-anchor="middle" pointer-events="none" font-family="Open Sans, Tahoma, Arial" font-weight="normal" transform="matrix(1,0,0,1,0,-22.8)"><tspan dy="0" >Обрабатывает</tspan><tspan dy="1.2em" x="0" >жалобы</tspan></text></g><g id="v-403"  label-idx="1" cursor="move" transform="matrix(1,0,0,1,1230,1713.9000244140625)" style="cursor: default; opacity: 1;"><rect joint-selector="rect" id="v-407" fill="#ffffff" rx="3" ry="3"  width="0" height="0" transform="matrix(1,0,0,1,0,0)" display="none"></rect><text joint-selector="text" id="v-406" fill="#000000" font-size="14" text-anchor="middle" pointer-events="none"></text></g></g><g  display="none"></g><g  id="v-412" display="none"><g  id="v-400"><path  end="source" d="M 26 0 L 0 13 L 26 26 z"></path></g><g  id="v-401"><path  end="target" d="M 26 0 L 0 13 L 26 26 z"></path></g></g><g  id="v-411" display="none"><g  id="v-399" transform="translate(1004.6247922411262, 1885.26826666958) "><g  event="remove"><circle r="11"></circle><path transform="scale(.8) translate(-16, -16)" d="M24.778,21.419 19.276,15.917 24.777,10.415 21.949,7.585 16.447,13.087 10.945,7.585 8.117,10.415 13.618,15.917 8.116,21.419 10.946,24.248 16.447,18.746 21.948,24.248z"></path><title>Remove link.</title></g><g  event="link:options"><circle r="11" transform="translate(25)"></circle><path fill="white" transform="scale(.55) translate(29, -16)" d="M31.229,17.736c0.064-0.571,0.104-1.148,0.104-1.736s-0.04-1.166-0.104-1.737l-4.377-1.557c-0.218-0.716-0.504-1.401-0.851-2.05l1.993-4.192c-0.725-0.91-1.549-1.734-2.458-2.459l-4.193,1.994c-0.647-0.347-1.334-0.632-2.049-0.849l-1.558-4.378C17.165,0.708,16.588,0.667,16,0.667s-1.166,0.041-1.737,0.105L12.707,5.15c-0.716,0.217-1.401,0.502-2.05,0.849L6.464,4.005C5.554,4.73,4.73,5.554,4.005,6.464l1.994,4.192c-0.347,0.648-0.632,1.334-0.849,2.05l-4.378,1.557C0.708,14.834,0.667,15.412,0.667,16s0.041,1.165,0.105,1.736l4.378,1.558c0.217,0.715,0.502,1.401,0.849,2.049l-1.994,4.193c0.725,0.909,1.549,1.733,2.459,2.458l4.192-1.993c0.648,0.347,1.334,0.633,2.05,0.851l1.557,4.377c0.571,0.064,1.148,0.104,1.737,0.104c0.588,0,1.165-0.04,1.736-0.104l1.558-4.377c0.715-0.218,1.399-0.504,2.049-0.851l4.193,1.993c0.909-0.725,1.733-1.549,2.458-2.458l-1.993-4.193c0.347-0.647,0.633-1.334,0.851-2.049L31.229,17.736zM16,20.871c-2.69,0-4.872-2.182-4.872-4.871c0-2.69,2.182-4.872,4.872-4.872c2.689,0,4.871,2.182,4.871,4.872C20.871,18.689,18.689,20.871,16,20.871z"></path><title>Link options.</title></g></g></g></g><!--z-index:66--><g   id="j_33" ><path  stroke="#444444" d="M 1646 1464 L 1432 2309" id="v-425" stroke-width="2" stroke-dasharray="8 8" fill="none" style="opacity: 1;"></path><path  fill="black" stroke="black" d="M 0 0 0 0" transform="matrix(-0.24552536013251197,0.9693901678538938,-0.9693901678538938,-0.24552536013251197,1646.010009765625,1464)"></path><path  fill="#444444" stroke="#444444" d="M 20 0 L 0 10 L 20 20 z" id="v-427" transform="matrix(0.24552548921461878,-0.9693901351602058,0.9693901351602058,0.24552548921461878,1422.2961562562516,2306.5447988032065)" style="opacity: 1;"></path><path  d="M 1646 1464 L 1432 2309" id="v-426" fill="none" style="cursor: default;"></path><g ><g id="v-419"  label-idx="0" cursor="move" transform="matrix(1,0,0,1,1539,1886.5)" style="cursor: default; opacity: 1;"><rect joint-selector="rect" id="v-422" fill="#ffffff" rx="3" ry="3" pointer-events="none" width="203.58338928222656" height="93.54184341430664" transform="matrix(1,0,0,1,-105,-46.8)"></rect><text joint-selector="text" id="v-421" font-size="24px" xml:space="preserve" y="0.8em" fill="#444444" text-anchor="middle" pointer-events="none" font-family="Open Sans, Tahoma, Arial" font-weight="normal" transform="matrix(1,0,0,1,0,-37.2)"><tspan dy="0" >Отправляет</tspan><tspan dy="1.2em" x="0" >агрегированные</tspan><tspan dy="1.2em" x="0" >события</tspan></text></g><g id="v-420"  label-idx="1" cursor="move" transform="matrix(1,0,0,1,1529,1927.300048828125)" style="cursor: default; opacity: 1;"><rect joint-selector="rect" id="v-424" fill="#ffffff" rx="3" ry="3"  width="0" height="0" transform="matrix(1,0,0,1,0,0)" display="none"></rect><text joint-selector="text" id="v-423" fill="#000000" font-size="14" text-anchor="middle" pointer-events="none"></text></g></g><g  display="none"></g><g  id="v-429" display="none"><g  id="v-417"><path  end="source" d="M 26 0 L 0 13 L 26 26 z"></path></g><g  id="v-418"><path  end="target" d="M 26 0 L 0 13 L 26 26 z"></path></g></g><g  id="v-428" display="none"><g  id="v-416" transform="translate(1636.1798500703715, 1502.7758256567106) "><g  event="remove"><circle r="11"></circle><path transform="scale(.8) translate(-16, -16)" d="M24.778,21.419 19.276,15.917 24.777,10.415 21.949,7.585 16.447,13.087 10.945,7.585 8.117,10.415 13.618,15.917 8.116,21.419 10.946,24.248 16.447,18.746 21.948,24.248z"></path><title>Remove link.</title></g><g  event="link:options"><circle r="11" transform="translate(25)"></circle><path fill="white" transform="scale(.55) translate(29, -16)" d="M31.229,17.736c0.064-0.571,0.104-1.148,0.104-1.736s-0.04-1.166-0.104-1.737l-4.377-1.557c-0.218-0.716-0.504-1.401-0.851-2.05l1.993-4.192c-0.725-0.91-1.549-1.734-2.458-2.459l-4.193,1.994c-0.647-0.347-1.334-0.632-2.049-0.849l-1.558-4.378C17.165,0.708,16.588,0.667,16,0.667s-1.166,0.041-1.737,0.105L12.707,5.15c-0.716,0.217-1.401,0.502-2.05,0.849L6.464,4.005C5.554,4.73,4.73,5.554,4.005,6.464l1.994,4.192c-0.347,0.648-0.632,1.334-0.849,2.05l-4.378,1.557C0.708,14.834,0.667,15.412,0.667,16s0.041,1.165,0.105,1.736l4.378,1.558c0.217,0.715,0.502,1.401,0.849,2.049l-1.994,4.193c0.725,0.909,1.549,1.733,2.459,2.458l4.192-1.993c0.648,0.347,1.334,0.633,2.05,0.851l1.557,4.377c0.571,0.064,1.148,0.104,1.737,0.104c0.588,0,1.165-0.04,1.736-0.104l1.558-4.377c0.715-0.218,1.399-0.504,2.049-0.851l4.193,1.993c0.909-0.725,1.733-1.549,2.458-2.458l-1.993-4.193c0.347-0.647,0.633-1.334,0.851-2.049L31.229,17.736zM16,20.871c-2.69,0-4.872-2.182-4.872-4.871c0-2.69,2.182-4.872,4.872-4.872c2.689,0,4.871,2.182,4.871,4.872C20.871,18.689,18.689,20.871,16,20.871z"></path><title>Link options.</title></g></g></g></g><!--z-index:67--><g   id="j_34" ><path  stroke="#444444" d="M 1909 1425 L 2275 1605 C 2281 1607.6666666666665 2285.333333333333 1611.9999999999998 2288 1618 L 2496 2079" id="v-442" stroke-width="2" stroke-dasharray="8 8" fill="none" style="opacity: 1;"></path><path  fill="black" stroke="black" d="M 0 0 0 0" transform="matrix(0.8974032476488718,0.4412112998431225,-0.4412112998431225,0.8974032476488718,1909,1424.6300048828125)"></path><path  fill="#444444" stroke="#444444" d="M 20 0 L 0 10 L 20 20 z" id="v-444" transform="matrix(-0.41158989208344343,-0.9113691681940636,0.9113691681940636,-0.41158989208344343,2487.146250207644,2083.1158210715253)" style="opacity: 1;"></path><path  d="M 1909 1425 L 2275 1605 C 2281 1607.6666666666665 2285.333333333333 1611.9999999999998 2288 1618 L 2496 2079" id="v-443" fill="none" style="cursor: default;"></path><g ><g id="v-436"  label-idx="0" cursor="move" transform="matrix(1,0,0,1,2304.2568359375,1654.031005859375)" style="cursor: default; opacity: 1;"><rect joint-selector="rect" id="v-439" fill="#ffffff" rx="3" ry="3" pointer-events="none" width="148.42735290527344" height="64.74184036254883" transform="matrix(1,0,0,1,-72.7,-32.4)"></rect><text joint-selector="text" id="v-438" font-size="24px" xml:space="preserve" y="0.8em" fill="#444444" text-anchor="middle" pointer-events="none" font-family="Open Sans, Tahoma, Arial" font-weight="normal" transform="matrix(1,0,0,1,0,-22.8)"><tspan dy="0" >Инициирует</tspan><tspan dy="1.2em" x="0" >платежи</tspan></text></g><g id="v-437"  label-idx="1" cursor="move" transform="matrix(1,0,0,1,2294.2568359375,1680.4310302734375)" style="cursor: default; opacity: 1;"><rect joint-selector="rect" id="v-441" fill="#ffffff" rx="3" ry="3"  width="0" height="0" transform="matrix(1,0,0,1,0,0)" display="none"></rect><text joint-selector="text" id="v-440" fill="#000000" font-size="14" text-anchor="middle" pointer-events="none"></text></g></g><g  display="none"><g  transform="translate(2284, 1609)" id="v-910"><circle  idx="0" r="10"></circle><path  idx="0" d="M16,5.333c-7.732,0-14,4.701-14,10.5c0,1.982,0.741,3.833,2.016,5.414L2,25.667l5.613-1.441c2.339,1.317,5.237,2.107,8.387,2.107c7.732,0,14-4.701,14-10.5C30,10.034,23.732,5.333,16,5.333z" transform="translate(5, -33)"></path><path  idx="0" transform="scale(.8) translate(9.5, -37)" d="M24.778,21.419 19.276,15.917 24.777,10.415 21.949,7.585 16.447,13.087 10.945,7.585 8.117,10.415 13.618,15.917 8.116,21.419 10.946,24.248 16.447,18.746 21.948,24.248z"><title>Remove vertex.</title></path></g></g><g  id="v-446" display="none"><g  id="v-434"><path  end="source" d="M 26 0 L 0 13 L 26 26 z"></path></g><g  id="v-435"><path  end="target" d="M 26 0 L 0 13 L 26 26 z"></path></g></g><g  id="v-445" display="none"><g  id="v-433" transform="translate(1944.8939986448231, 1442.6527862187654) "><g  event="remove"><circle r="11"></circle><path transform="scale(.8) translate(-16, -16)" d="M24.778,21.419 19.276,15.917 24.777,10.415 21.949,7.585 16.447,13.087 10.945,7.585 8.117,10.415 13.618,15.917 8.116,21.419 10.946,24.248 16.447,18.746 21.948,24.248z"></path><title>Remove link.</title></g><g  event="link:options"><circle r="11" transform="translate(25)"></circle><path fill="white" transform="scale(.55) translate(29, -16)" d="M31.229,17.736c0.064-0.571,0.104-1.148,0.104-1.736s-0.04-1.166-0.104-1.737l-4.377-1.557c-0.218-0.716-0.504-1.401-0.851-2.05l1.993-4.192c-0.725-0.91-1.549-1.734-2.458-2.459l-4.193,1.994c-0.647-0.347-1.334-0.632-2.049-0.849l-1.558-4.378C17.165,0.708,16.588,0.667,16,0.667s-1.166,0.041-1.737,0.105L12.707,5.15c-0.716,0.217-1.401,0.502-2.05,0.849L6.464,4.005C5.554,4.73,4.73,5.554,4.005,6.464l1.994,4.192c-0.347,0.648-0.632,1.334-0.849,2.05l-4.378,1.557C0.708,14.834,0.667,15.412,0.667,16s0.041,1.165,0.105,1.736l4.378,1.558c0.217,0.715,0.502,1.401,0.849,2.049l-1.994,4.193c0.725,0.909,1.549,1.733,2.459,2.458l4.192-1.993c0.648,0.347,1.334,0.633,2.05,0.851l1.557,4.377c0.571,0.064,1.148,0.104,1.737,0.104c0.588,0,1.165-0.04,1.736-0.104l1.558-4.377c0.715-0.218,1.399-0.504,2.049-0.851l4.193,1.993c0.909-0.725,1.733-1.549,2.458-2.458l-1.993-4.193c0.347-0.647,0.633-1.334,0.851-2.049L31.229,17.736zM16,20.871c-2.69,0-4.872-2.182-4.872-4.871c0-2.69,2.182-4.872,4.872-4.872c2.689,0,4.871,2.182,4.871,4.872C20.871,18.689,18.689,20.871,16,20.871z"></path><title>Link options.</title></g></g></g></g><!--z-index:68--></g><g ></g><g ></g><g ></g></g></svg>